<svg width="60" height="60" viewBox="0 0 60 60" fill="none" xmlns="http://www.w3.org/2000/svg">
<metadata><?xpacket begin="﻿" id="W5M0MpCehiHzreSzNTczkc9d"?>
<x:xmpmeta xmlns:x="adobe:ns:meta/" x:xmptk="Adobe XMP Core 9.1-c002 79.2c0288b, 2024/01/23-06:33:24        ">
   <rdf:RDF xmlns:rdf="http://www.w3.org/1999/02/22-rdf-syntax-ns#">
      <rdf:Description rdf:about=""
            xmlns:xmpMM="http://ns.adobe.com/xap/1.0/mm/"
            xmlns:stEvt="http://ns.adobe.com/xap/1.0/sType/ResourceEvent#"
            xmlns:xmp="http://ns.adobe.com/xap/1.0/">
         <xmpMM:PreservedFileName>Certified Technicians.svg</xmpMM:PreservedFileName>
         <xmpMM:InstanceID>xmp.iid:75404b88-5685-45af-b539-c5a299583517</xmpMM:InstanceID>
         <xmpMM:DocumentID>xmp.did:75404b88-5685-45af-b539-c5a299583517</xmpMM:DocumentID>
         <xmpMM:OriginalDocumentID>xmp.did:75404b88-5685-45af-b539-c5a299583517</xmpMM:OriginalDocumentID>
         <xmpMM:History>
            <rdf:Seq>
               <rdf:li>
                  <rdf:Description>
                     <stEvt:action>saved</stEvt:action>
                     <stEvt:instanceID>xmp.iid:75404b88-5685-45af-b539-c5a299583517</stEvt:instanceID>
                     <stEvt:when>2024-03-21T16:32:34-05:00</stEvt:when>
                     <stEvt:softwareAgent>Adobe Bridge 2024</stEvt:softwareAgent>
                     <stEvt:changed>/metadata</stEvt:changed>
                  </rdf:Description>
               </rdf:li>
            </rdf:Seq>
         </xmpMM:History>
         <xmp:MetadataDate>2024-03-21T16:32:34-05:00</xmp:MetadataDate>
      </rdf:Description>
   </rdf:RDF>
</x:xmpmeta>
                                                                                                    
                                                                                                    
                                                                                                    
                                                                                                    
                                                                                                    
                                                                                                    
                                                                                                    
                                                                                                    
                                                                                                    
                                                                                                    
                                                                                                    
                                                                                                    
                                                                                                    
                                                                                                    
                                                                                                    
                                                                                                    
                                                                                                    
                                                                                                    
                                                                                                    
                                                                                                    
                           
<?xpacket end="w"?></metadata>
<g clip-path="url(#clip0_3692_4810)">
<path d="M24.7273 0.860117C24.0243 0.121956 22.9698 -0.159249 21.9856 0.0985219C21.0014 0.356293 20.2398 1.14132 19.982 2.12554L18.1307 9.44856L10.8663 7.39812C9.88209 7.11691 8.82757 7.39812 8.11284 8.11284C7.39812 8.82757 7.11691 9.88209 7.39812 10.8663L9.44856 18.1307L2.12554 19.9937C1.14132 20.2398 0.368009 21.0131 0.0985219 21.9973C-0.170966 22.9815 0.121956 24.0243 0.860117 24.7273L6.2733 29.9999L0.860117 35.2725C0.121956 35.9755 -0.159249 37.03 0.0985219 38.0142C0.356293 38.9985 1.14132 39.76 2.12554 40.0178L9.44856 41.8691L7.39812 49.1335C7.11691 50.1177 7.39812 51.1723 8.11284 51.887C8.82757 52.6017 9.88209 52.8829 10.8663 52.6017L18.1307 50.5513L19.982 57.8743C20.2281 58.8585 21.0014 59.6318 21.9856 59.9013C22.9698 60.1708 24.0126 59.8779 24.7273 59.1514L29.9999 53.7382L35.2725 59.1514C35.9872 59.8779 37.03 60.1708 38.0142 59.9013C38.9985 59.6318 39.76 58.8585 40.0178 57.8743L41.8691 50.5513L49.1335 52.6017C50.1177 52.8829 51.1723 52.6017 51.887 51.887C52.6017 51.1723 52.8829 50.1177 52.6017 49.1335L50.5513 41.8691L57.8743 40.0178C58.8585 39.7718 59.6318 38.9985 59.9013 38.0142C60.1708 37.03 59.8779 35.9755 59.1514 35.2725L53.7382 29.9999L59.1514 24.7273C59.8779 24.0126 60.1708 22.9698 59.9013 21.9856C59.6318 21.0014 58.8585 20.2398 57.8743 19.982L50.5513 18.1307L52.6017 10.8663C52.8829 9.88209 52.6017 8.82757 51.887 8.11284C51.1723 7.39812 50.1177 7.11691 49.1335 7.39812L41.8691 9.44856L40.0061 2.12554C39.76 1.14132 38.9867 0.368009 38.0025 0.0985219C37.0183 -0.170966 35.9755 0.121956 35.2725 0.860117L29.9999 6.2733L24.7273 0.860117Z" fill="#FBA919"/>
</g>
<defs>
<clipPath id="clip0_3692_4810">
<rect width="60" height="60" fill="white"/>
</clipPath>
</defs>
</svg>
