<svg width="60" height="60" viewBox="0 0 60 60" fill="none" xmlns="http://www.w3.org/2000/svg">
<metadata><?xpacket begin="﻿" id="W5M0MpCehiHzreSzNTczkc9d"?>
<x:xmpmeta xmlns:x="adobe:ns:meta/" x:xmptk="Adobe XMP Core 9.1-c002 79.2c0288b, 2024/01/23-06:33:24        ">
   <rdf:RDF xmlns:rdf="http://www.w3.org/1999/02/22-rdf-syntax-ns#">
      <rdf:Description rdf:about=""
            xmlns:xmpMM="http://ns.adobe.com/xap/1.0/mm/"
            xmlns:stEvt="http://ns.adobe.com/xap/1.0/sType/ResourceEvent#"
            xmlns:xmp="http://ns.adobe.com/xap/1.0/">
         <xmpMM:PreservedFileName>Locally Run.svg</xmpMM:PreservedFileName>
         <xmpMM:InstanceID>xmp.iid:66a1454b-ef9b-4ab2-887f-bc8b1e205ad2</xmpMM:InstanceID>
         <xmpMM:DocumentID>xmp.did:66a1454b-ef9b-4ab2-887f-bc8b1e205ad2</xmpMM:DocumentID>
         <xmpMM:OriginalDocumentID>xmp.did:66a1454b-ef9b-4ab2-887f-bc8b1e205ad2</xmpMM:OriginalDocumentID>
         <xmpMM:History>
            <rdf:Seq>
               <rdf:li>
                  <rdf:Description>
                     <stEvt:action>saved</stEvt:action>
                     <stEvt:instanceID>xmp.iid:66a1454b-ef9b-4ab2-887f-bc8b1e205ad2</stEvt:instanceID>
                     <stEvt:when>2024-03-21T16:32:35-05:00</stEvt:when>
                     <stEvt:softwareAgent>Adobe Bridge 2024</stEvt:softwareAgent>
                     <stEvt:changed>/metadata</stEvt:changed>
                  </rdf:Description>
               </rdf:li>
            </rdf:Seq>
         </xmpMM:History>
         <xmp:MetadataDate>2024-03-21T16:32:35-05:00</xmp:MetadataDate>
      </rdf:Description>
   </rdf:RDF>
</x:xmpmeta>
                                                                                                    
                                                                                                    
                                                                                                    
                                                                                                    
                                                                                                    
                                                                                                    
                                                                                                    
                                                                                                    
                                                                                                    
                                                                                                    
                                                                                                    
                                                                                                    
                                                                                                    
                                                                                                    
                                                                                                    
                                                                                                    
                                                                                                    
                                                                                                    
                                                                                                    
                                                                                                    
                           
<?xpacket end="w"?></metadata>
<g clip-path="url(#clip0_3692_4807)">
<path d="M23.92 20.3468C23.92 17.0671 26.5771 14.4102 29.8571 14.4102C33.1371 14.4102 35.7943 17.0671 35.7943 20.3468C35.7943 23.6266 33.1371 26.2835 29.8571 26.2835C26.5771 26.2835 23.92 23.6266 23.92 20.3468ZM14.5943 15.2616C18.8114 15.2616 22.2229 11.8447 22.2229 7.63363C22.2229 3.42256 18.8057 0 14.5943 0C10.3829 0 6.96 3.41685 6.96 7.62792C6.96 11.839 10.3771 15.2558 14.5886 15.2558L14.5943 15.2616ZM44.2686 15.2616C48.4857 15.2616 51.8971 11.8447 51.8971 7.63363C51.8971 3.42256 48.4857 0 44.2686 0C40.0514 0 36.64 3.41685 36.64 7.62792C36.64 11.839 40.0571 15.2558 44.2686 15.2558V15.2616ZM38.76 18.6498C38.2057 23.8151 37.5257 25.7178 35.7943 27.2662C44.3257 31.1002 44.1371 39.8537 38.76 47.6131V59.4806H49.7829C51.4457 58.6807 51.8571 57.8236 52.3257 56.0866V40.8251C54.7086 40.5337 55.2114 39.6938 55.72 37.8596V23.8722C53.8571 19.1584 49.1657 18.1127 38.76 18.6498ZM23.0743 27.1291C21.3371 25.5864 20.6571 23.8151 20.1086 18.6498C9.70857 18.1127 5.85714 19.0269 4 23.7351V37.7225C4.50286 39.5566 5.01143 40.4023 7.39429 40.688V55.9495C7.86857 57.6808 8.27429 58.5436 9.93714 59.3435H20.1143V47.4759C14.7429 39.7166 14.5543 30.9631 23.08 27.1291H23.0743ZM34.0971 30.1003H23.92C16.4686 35.5227 18.5486 43.1849 23.92 44.939V57.6579C28.0571 61.0462 30.3829 60.5034 34.52 57.6579V44.5162C40.3943 43.7448 41.6743 32.9286 34.0971 30.1003Z" fill="#FBA919"/>
</g>
<defs>
<clipPath id="clip0_3692_4807">
<rect width="60" height="60" fill="white"/>
</clipPath>
</defs>
</svg>
