<svg width="60" height="60" viewBox="0 0 60 60" fill="none" xmlns="http://www.w3.org/2000/svg">
<metadata><?xpacket begin="﻿" id="W5M0MpCehiHzreSzNTczkc9d"?>
<x:xmpmeta xmlns:x="adobe:ns:meta/" x:xmptk="Adobe XMP Core 9.1-c002 79.2c0288b, 2024/01/23-06:33:24        ">
   <rdf:RDF xmlns:rdf="http://www.w3.org/1999/02/22-rdf-syntax-ns#">
      <rdf:Description rdf:about=""
            xmlns:xmpMM="http://ns.adobe.com/xap/1.0/mm/"
            xmlns:stEvt="http://ns.adobe.com/xap/1.0/sType/ResourceEvent#"
            xmlns:xmp="http://ns.adobe.com/xap/1.0/">
         <xmpMM:PreservedFileName>Quality Craftmanship.svg</xmpMM:PreservedFileName>
         <xmpMM:InstanceID>xmp.iid:c59dbbd1-4db5-438b-9996-b7b85fbe3eec</xmpMM:InstanceID>
         <xmpMM:DocumentID>xmp.did:c59dbbd1-4db5-438b-9996-b7b85fbe3eec</xmpMM:DocumentID>
         <xmpMM:OriginalDocumentID>xmp.did:c59dbbd1-4db5-438b-9996-b7b85fbe3eec</xmpMM:OriginalDocumentID>
         <xmpMM:History>
            <rdf:Seq>
               <rdf:li>
                  <rdf:Description>
                     <stEvt:action>saved</stEvt:action>
                     <stEvt:instanceID>xmp.iid:c59dbbd1-4db5-438b-9996-b7b85fbe3eec</stEvt:instanceID>
                     <stEvt:when>2024-03-21T16:32:35-05:00</stEvt:when>
                     <stEvt:softwareAgent>Adobe Bridge 2024</stEvt:softwareAgent>
                     <stEvt:changed>/metadata</stEvt:changed>
                  </rdf:Description>
               </rdf:li>
            </rdf:Seq>
         </xmpMM:History>
         <xmp:MetadataDate>2024-03-21T16:32:35-05:00</xmp:MetadataDate>
      </rdf:Description>
   </rdf:RDF>
</x:xmpmeta>
                                                                                                    
                                                                                                    
                                                                                                    
                                                                                                    
                                                                                                    
                                                                                                    
                                                                                                    
                                                                                                    
                                                                                                    
                                                                                                    
                                                                                                    
                                                                                                    
                                                                                                    
                                                                                                    
                                                                                                    
                                                                                                    
                                                                                                    
                                                                                                    
                                                                                                    
                                                                                                    
                           
<?xpacket end="w"?></metadata>
<g clip-path="url(#clip0_3692_4812)">
<path d="M9.21375 0.587314C8.10053 -0.279826 6.51859 -0.174363 5.51083 0.821676L0.823588 5.50892C-0.172451 6.50495 -0.277914 8.0869 0.577508 9.21184L9.95199 21.3987C10.4793 22.09 11.3113 22.5002 12.1784 22.5002H18.5179L31.2907 35.2729C29.5681 38.6711 30.1188 42.9365 32.9663 45.7723L46.0906 58.8966C47.5554 60.3614 49.9342 60.3614 51.3989 58.8966L58.8985 51.397C60.3633 49.9322 60.3633 47.5535 58.8985 46.0887L45.7742 32.9644C42.9384 30.1286 38.6731 29.5662 35.2748 31.2887L22.5021 18.516V12.1882C22.5021 11.3094 22.0919 10.4891 21.4006 9.9618L9.21375 0.587314ZM2.33522 46.4168C0.847024 47.905 0.00332067 49.9322 0.00332067 52.0415C0.00332067 56.4358 3.56562 59.9981 7.95991 59.9981C10.0692 59.9981 12.0964 59.1544 13.5846 57.6662L27.3885 43.8623C26.4745 41.4132 26.3339 38.7532 26.9667 36.2338L19.7366 29.0037L2.33522 46.4168ZM60 16.8755C60 15.6451 59.8711 14.4498 59.625 13.3015C59.3438 11.989 57.7384 11.6492 56.7892 12.5984L49.3014 20.0862C48.9498 20.4378 48.4694 20.637 47.9772 20.637H41.251C40.2198 20.637 39.3761 19.7933 39.3761 18.7621V12.0242C39.3761 11.532 39.5754 11.0516 39.9269 10.7L47.4148 3.21217C48.3639 2.263 48.0241 0.657622 46.7117 0.376388C45.5516 0.130308 44.3563 0.00140865 43.1259 0.00140865C33.81 0.00140865 26.2519 7.55958 26.2519 16.8755V16.9692L36.2474 26.9648C40.4659 25.8984 45.1297 27.0233 48.4342 30.3279L50.274 32.1676C56.0159 29.4724 60 23.6368 60 16.8755ZM6.56546 50.6236C6.56546 49.8777 6.86176 49.1624 7.38917 48.635C7.91659 48.1076 8.63192 47.8113 9.3778 47.8113C10.1237 47.8113 10.839 48.1076 11.3664 48.635C11.8938 49.1624 12.1901 49.8777 12.1901 50.6236C12.1901 51.3695 11.8938 52.0848 11.3664 52.6122C10.839 53.1397 10.1237 53.436 9.3778 53.436C8.63192 53.436 7.91659 53.1397 7.38917 52.6122C6.86176 52.0848 6.56546 51.3695 6.56546 50.6236Z" fill="#FBA919"/>
</g>
<defs>
<clipPath id="clip0_3692_4812">
<rect width="60" height="60" fill="white"/>
</clipPath>
</defs>
</svg>
