<svg width="60" height="60" viewBox="0 0 60 60" fill="none" xmlns="http://www.w3.org/2000/svg">
<metadata><?xpacket begin="﻿" id="W5M0MpCehiHzreSzNTczkc9d"?>
<x:xmpmeta xmlns:x="adobe:ns:meta/" x:xmptk="Adobe XMP Core 9.1-c002 79.2c0288b, 2024/01/23-06:33:24        ">
   <rdf:RDF xmlns:rdf="http://www.w3.org/1999/02/22-rdf-syntax-ns#">
      <rdf:Description rdf:about=""
            xmlns:xmpMM="http://ns.adobe.com/xap/1.0/mm/"
            xmlns:stEvt="http://ns.adobe.com/xap/1.0/sType/ResourceEvent#"
            xmlns:xmp="http://ns.adobe.com/xap/1.0/">
         <xmpMM:PreservedFileName>Same-Day Service.svg</xmpMM:PreservedFileName>
         <xmpMM:InstanceID>xmp.iid:d8cce9b9-e492-4aab-89b9-9a13c908e62d</xmpMM:InstanceID>
         <xmpMM:DocumentID>xmp.did:d8cce9b9-e492-4aab-89b9-9a13c908e62d</xmpMM:DocumentID>
         <xmpMM:OriginalDocumentID>xmp.did:d8cce9b9-e492-4aab-89b9-9a13c908e62d</xmpMM:OriginalDocumentID>
         <xmpMM:History>
            <rdf:Seq>
               <rdf:li>
                  <rdf:Description>
                     <stEvt:action>saved</stEvt:action>
                     <stEvt:instanceID>xmp.iid:d8cce9b9-e492-4aab-89b9-9a13c908e62d</stEvt:instanceID>
                     <stEvt:when>2024-03-21T16:32:35-05:00</stEvt:when>
                     <stEvt:softwareAgent>Adobe Bridge 2024</stEvt:softwareAgent>
                     <stEvt:changed>/metadata</stEvt:changed>
                  </rdf:Description>
               </rdf:li>
            </rdf:Seq>
         </xmpMM:History>
         <xmp:MetadataDate>2024-03-21T16:32:35-05:00</xmp:MetadataDate>
      </rdf:Description>
   </rdf:RDF>
</x:xmpmeta>
                                                                                                    
                                                                                                    
                                                                                                    
                                                                                                    
                                                                                                    
                                                                                                    
                                                                                                    
                                                                                                    
                                                                                                    
                                                                                                    
                                                                                                    
                                                                                                    
                                                                                                    
                                                                                                    
                                                                                                    
                                                                                                    
                                                                                                    
                                                                                                    
                                                                                                    
                                                                                                    
                           
<?xpacket end="w"?></metadata>
<path d="M59.9843 30.0453C59.9843 31.9205 58.4216 33.3894 56.6507 33.3894H53.317L53.39 50.0783C53.39 50.3595 53.3691 50.6408 53.3379 50.9221V52.5993C53.3379 54.9016 51.4731 56.7663 49.1709 56.7663H47.504C47.3895 56.7663 47.2749 56.7663 47.1603 56.7559C47.0144 56.7663 46.8686 56.7663 46.7227 56.7663H43.337H40.8368C38.5345 56.7663 36.6698 54.9016 36.6698 52.5993V50.0991V43.4319C36.6698 41.588 35.1801 40.0983 33.3362 40.0983H26.6689C24.825 40.0983 23.3353 41.588 23.3353 43.4319V50.0991V52.5993C23.3353 54.9016 21.4706 56.7663 19.1683 56.7663H16.6681H13.3449C13.1886 56.7663 13.0324 56.7559 12.8761 56.7455C12.7511 56.7559 12.6261 56.7663 12.5011 56.7663H10.8343C8.53198 56.7663 6.66723 54.9016 6.66723 52.5993V40.9317C6.66723 40.8379 6.66723 40.7337 6.67765 40.64V33.3894H3.33362C1.45846 33.3894 0 31.9309 0 30.0453C0 29.1077 0.312527 28.2743 1.04176 27.5451L27.7524 4.26187C28.4816 3.53264 29.315 3.42847 30.0442 3.42847C30.7735 3.42847 31.6069 3.63682 32.2319 4.1577L58.8383 27.5451C59.6717 28.2743 60.0884 29.1077 59.9843 30.0453Z" fill="#FBA919"/>
</svg>
