<?xml version="1.0" encoding="UTF-8"?>
<svg version="1.1" xmlns="http://www.w3.org/2000/svg" width="512" height="512">
<path d="M0 0 C1.04729163 -0.00384115 2.09458325 -0.00768229 3.17361099 -0.01163983 C4.32806423 -0.01077335 5.48251748 -0.00990687 6.67195415 -0.00901413 C7.89534974 -0.01198525 9.11874533 -0.01495637 10.37921351 -0.01801753 C13.78133941 -0.02520604 17.18341482 -0.02787748 20.58554471 -0.028615 C24.25231342 -0.03046434 27.91907117 -0.03801106 31.58583355 -0.04475021 C39.60646261 -0.05833882 47.62708668 -0.06435903 55.64772534 -0.06876087 C60.65448726 -0.07152232 65.66124724 -0.07575948 70.66800785 -0.08026505 C84.5264556 -0.09245824 98.3849018 -0.10275756 112.2433548 -0.10614014 C113.13052344 -0.1063597 114.01769208 -0.10657927 114.93174462 -0.10680549 C116.26570563 -0.10713291 116.26570563 -0.10713291 117.62661535 -0.10746694 C119.42873085 -0.1079104 121.23084635 -0.10835697 123.03296185 -0.10880661 C123.92687591 -0.10902804 124.82078997 -0.10924947 125.74179234 -0.10947761 C140.22905725 -0.11342631 154.71627188 -0.13088231 169.20351736 -0.15416613 C184.07234648 -0.17787063 198.94115036 -0.19034157 213.80999869 -0.19150805 C222.16034157 -0.19242531 230.51061894 -0.19819022 238.86094379 -0.21632767 C245.97094459 -0.23171648 253.08085962 -0.23685634 260.1908739 -0.22858956 C263.81895508 -0.22467875 267.44686351 -0.2256335 271.07492352 -0.23964691 C275.00732569 -0.25469705 278.93948379 -0.24653207 282.87190533 -0.23606491 C284.01966641 -0.24412132 285.16742749 -0.25217772 286.34996921 -0.26047826 C292.76717217 -0.22039886 297.64615773 0.10663197 302.60693645 4.63142776 C305.72055715 8.63019146 307.08879084 11.36882355 307.08265972 16.40246964 C307.08472172 17.70864243 307.08472172 17.70864243 307.08682537 19.04120255 C307.08323009 19.99354279 307.07963482 20.94588303 307.0759306 21.92708206 C307.07607662 22.93213791 307.07622265 23.93719376 307.0763731 24.97270584 C307.07567549 28.30037456 307.06789014 31.62798755 307.06006145 34.95564651 C307.05819674 37.26064397 307.05677309 39.56564181 307.05577374 41.8706398 C307.0519528 47.94187384 307.04212609 54.01308402 307.03106976 60.08430862 C307.02084656 66.2777461 307.01627416 72.47118742 307.01123333 78.66463089 C307.00050348 90.82024034 306.9834321 102.97583207 306.9624052 115.13142776 C307.95600048 115.12476593 307.95600048 115.12476593 308.96966839 115.11796951 C315.91367703 115.07344806 322.85764459 115.04344261 329.80176067 115.02156448 C332.38738943 115.01155643 334.97300701 114.99794587 337.55859661 114.98054886 C341.29218601 114.95607103 345.02562472 114.94489233 348.7592802 114.93611526 C349.90040264 114.92579269 351.04152508 114.91547012 352.21722698 114.90483475 C367.35109931 114.90275687 379.62466999 117.2941496 390.91943645 127.88924026 C398.1104562 135.78148756 401.27641746 144.43252993 401.22983074 155.07435989 C401.23436185 155.84437104 401.23889297 156.61438219 401.24356139 157.407727 C401.25616009 159.97226485 401.25458796 162.53658908 401.25293255 165.10115433 C401.25892067 166.94638719 401.26572687 168.79161755 401.27328777 170.63684464 C401.29092708 175.63908874 401.29564231 180.64126437 401.29691935 185.64353657 C401.29834279 188.77224625 401.30261609 191.90093863 401.30791378 195.02964401 C401.32640795 205.95469641 401.33458525 216.87970007 401.33301067 227.80476761 C401.33180978 237.97208194 401.35290348 248.13918382 401.384498 258.30644441 C401.41069238 267.04894576 401.42137663 275.79137787 401.42009985 284.53391814 C401.41959111 289.74946298 401.4252259 294.96481897 401.44645596 300.18032455 C401.46589134 305.08880927 401.46592662 309.99692605 401.45142269 314.90542412 C401.44933999 316.70042906 401.45400315 318.49545735 401.46614361 320.29042244 C401.55936249 335.03530088 399.5763305 345.88014925 389.2202177 357.00252151 C378.27309059 367.56354663 365.16991897 368.29030213 350.81006145 368.22908401 C348.92715656 368.22696159 348.92715656 368.22696159 347.00621319 368.2247963 C343.6903517 368.22016353 340.37456069 368.21119916 337.05871868 368.20009232 C333.6665943 368.18981068 330.2744626 368.18528429 326.88232708 368.18025589 C320.24233385 368.16925348 313.60237359 368.15253529 306.9624052 368.13142776 C306.97239796 369.91548523 306.97239796 369.91548523 306.98259258 371.73558426 C307.04342263 382.94738875 307.08838702 394.15915973 307.11784172 405.37109184 C307.13349376 411.13518657 307.15472388 416.89914802 307.18872356 422.66316605 C307.22133306 428.22635457 307.2392617 433.78941493 307.24703693 439.35269165 C307.25257755 441.47456123 307.263397 443.59642385 307.27959538 445.71823883 C307.30139049 448.69157158 307.30437122 451.66437556 307.30298138 454.63777542 C307.31916012 455.95192429 307.31916012 455.95192429 307.3356657 457.29262161 C307.30670774 463.02248021 306.47750638 467.37398612 302.4624052 471.77595901 C298.14445926 475.13810963 295.32947929 476.25542733 289.92481041 476.26285553 C288.87751878 476.26669667 287.83022716 476.27053782 286.75119942 476.27449536 C285.59674618 476.27362888 284.44229293 476.2727624 283.25285625 476.27186966 C282.02946067 476.27484078 280.80606508 476.2778119 279.5455969 476.28087306 C276.143471 476.28806157 272.74139559 476.29073301 269.3392657 476.29147053 C265.67249699 476.29331987 262.00573924 476.30086659 258.33897686 476.30760574 C250.3183478 476.32119435 242.29772373 476.32721456 234.27708507 476.3316164 C229.27032315 476.33437785 224.26356317 476.33861501 219.25680256 476.34312057 C205.39835481 476.35531377 191.53990861 476.36561309 177.68145561 476.36899567 C176.79428697 476.36921523 175.90711833 476.3694348 174.99306579 476.36966102 C174.10375845 476.3698793 173.21445111 476.37009757 172.29819506 476.37032247 C170.49607956 476.37076593 168.69396406 476.3712125 166.89184856 476.37166214 C165.9979345 476.37188357 165.10402044 476.372105 164.18301807 476.37233314 C149.69575316 476.37628184 135.20853853 476.39373784 120.72129305 476.41702166 C105.85246393 476.44072616 90.98366005 476.4531971 76.11481172 476.45436358 C67.76446884 476.45528084 59.41419147 476.46104575 51.06386662 476.4791832 C43.95386582 476.49457201 36.84395079 476.49971187 29.73393651 476.49144509 C26.10585532 476.48753428 22.4779469 476.48848903 18.84988689 476.50250244 C14.91748472 476.51755258 10.98532662 476.5093876 7.05290508 476.49892044 C5.33126346 476.51100505 5.33126346 476.51100505 3.5748412 476.52333379 C-2.84236176 476.48325439 -7.72134732 476.15622356 -12.68212605 471.63142776 C-15.70554299 467.74851102 -17.16425782 465.0286416 -17.15784931 460.12613297 C-17.15991131 458.90830879 -17.15991131 458.90830879 -17.16201496 457.66588211 C-17.15662205 456.3355545 -17.15662205 456.3355545 -17.15112019 454.97835159 C-17.15126621 454.04157074 -17.15141224 453.10478989 -17.15156269 452.13962173 C-17.1508653 449.03921071 -17.14308097 445.93885956 -17.13525105 442.83845901 C-17.13338625 440.69040332 -17.13196264 438.5423472 -17.13096333 436.39429092 C-17.12714299 430.73734236 -17.11731681 425.08041942 -17.10625935 419.42348099 C-17.09603484 413.65230531 -17.09146347 407.88112551 -17.08642292 402.10994339 C-17.07569414 390.78376025 -17.05862349 379.45759614 -17.0375948 368.13142776 C-17.72948902 368.13586899 -18.42138325 368.14031021 -19.13424397 368.14488602 C-25.69451041 368.18516771 -32.25474171 368.21551546 -38.81510448 368.23505211 C-42.18684818 368.24543415 -45.55848862 368.2594896 -48.93017292 368.28230667 C-52.81756987 368.30671057 -56.70482241 368.31794659 -60.5922823 368.32674026 C-61.78747486 368.33706284 -62.98266743 368.34738541 -64.21407795 368.35802078 C-77.75950745 368.35981502 -90.08971204 365.96250357 -100.4125948 356.50642776 C-107.79474497 348.5232257 -111.18751152 339.21611662 -111.18476582 328.54925919 C-111.1884425 327.78181131 -111.19211919 327.01436344 -111.19590729 326.22365957 C-111.20692766 323.64985872 -111.21078521 321.07609827 -111.21459675 318.50227737 C-111.22086275 316.65748848 -111.22750968 314.81270084 -111.23450947 312.96791458 C-111.25553981 306.90654248 -111.2659124 300.84517016 -111.27587605 294.78377151 C-111.27992429 292.69512862 -111.28404123 290.60648587 -111.28822613 288.51784325 C-111.30727726 278.70249167 -111.32150723 268.88714761 -111.3298381 259.0717811 C-111.33960401 247.75325141 -111.36590708 236.43491762 -111.40633899 225.11645693 C-111.43653739 216.36128576 -111.4513106 207.60617062 -111.45461911 198.85094839 C-111.45696576 193.62528608 -111.46587585 188.39983306 -111.49108028 183.17422676 C-111.5144305 178.25348671 -111.51856632 173.33309273 -111.5083189 168.41231155 C-111.50782508 166.61246525 -111.51409979 164.81260151 -111.52787495 163.01280785 C-111.62952993 148.93622155 -110.19811093 137.77481992 -100.0375948 127.13142776 C-88.26525522 115.89318299 -74.73594756 114.96486278 -59.2250948 115.03377151 C-58.0156319 115.03518646 -56.80616901 115.03660141 -55.56005573 115.03805923 C-51.71920964 115.04363067 -47.87842309 115.05617793 -44.0375948 115.06892776 C-41.42431439 115.07394645 -38.81103307 115.07850872 -36.19775105 115.08259964 C-29.81101218 115.09359075 -23.42430774 115.11030033 -17.0375948 115.13142776 C-17.04758755 113.2158255 -17.04758755 113.2158255 -17.05778217 111.2615242 C-17.11860064 99.22561324 -17.16357107 87.18973346 -17.19303131 75.15370369 C-17.20868627 68.96587468 -17.22992178 62.77816974 -17.26391315 56.59041214 C-17.29651216 50.61874166 -17.31444909 44.64719052 -17.32222652 38.67543793 C-17.32776902 36.3972689 -17.3385921 34.11910638 -17.35478497 31.84098816 C-17.376566 28.64973467 -17.37956138 25.45897412 -17.37817097 22.26765823 C-17.38895679 21.32610382 -17.39974262 20.38454941 -17.41085529 19.41446304 C-17.38300006 13.50496976 -16.68809878 9.03731885 -12.5375948 4.48689651 C-8.21964885 1.1247459 -5.40466888 0.0074282 0 0 Z M17.9624052 35.13142776 C17.9624052 61.53142776 17.9624052 87.93142776 17.9624052 115.13142776 C101.7824052 115.13142776 185.6024052 115.13142776 271.9624052 115.13142776 C271.9624052 88.73142776 271.9624052 62.33142776 271.9624052 35.13142776 C188.1424052 35.13142776 104.3224052 35.13142776 17.9624052 35.13142776 Z M231.9624052 190.13142776 C229.51848858 194.16920306 229.38953038 198.5120562 229.9624052 203.13142776 C231.78232536 208.28786821 234.52445988 210.99876048 238.9624052 214.13142776 C244.37714371 216.51235824 249.52267926 216.43777927 255.3295927 216.43220901 C256.3231477 216.43649414 257.31670269 216.44077927 258.34036541 216.44519424 C260.43653891 216.45092217 262.53273229 216.45144917 264.62890911 216.44710159 C267.8198501 216.44394513 271.00986015 216.46740843 274.20068645 216.49275589 C276.24365404 216.49502953 278.28662411 216.49573208 280.3295927 216.49470901 C281.27567394 216.50391876 282.22175518 216.51312851 283.19650555 216.52261734 C290.41745986 216.47269659 296.15565318 215.51106535 301.8374052 210.69392776 C305.71099634 206.02283258 306.41094607 202.59028054 306.27881145 196.60017776 C305.66369657 191.80076287 302.9946467 189.13577084 299.6499052 185.88142776 C293.51691521 181.88785288 287.24874582 181.83313811 280.15381145 181.86580276 C278.76548359 181.86293259 278.76548359 181.86293259 277.3491087 181.86000443 C275.40013639 181.85864914 273.45115486 181.86229951 271.50220013 181.87068558 C268.53755448 181.88138213 265.57351642 181.87077413 262.60888958 181.85799026 C260.70719555 181.85931221 258.80550189 181.86187534 256.90381145 181.86580276 C256.02648861 181.8617543 255.14916576 181.85770584 254.24525738 181.8535347 C245.25629755 181.92118383 238.17788457 183.22725263 231.9624052 190.13142776 Z M17.9624052 303.13142776 C17.9624052 348.67142776 17.9624052 394.21142776 17.9624052 441.13142776 C101.7824052 441.13142776 185.6024052 441.13142776 271.9624052 441.13142776 C271.9624052 395.59142776 271.9624052 350.05142776 271.9624052 303.13142776 C188.1424052 303.13142776 104.3224052 303.13142776 17.9624052 303.13142776 Z " fill="#000000" transform="translate(111.03759479522705,17.868572235107422)"/>
<path d="M0 0 C1.48572169 -0.00407046 2.97144034 -0.00941499 4.45715332 -0.01593018 C8.47369373 -0.02955331 12.49000178 -0.02432594 16.50654602 -0.01479292 C20.72019045 -0.00717029 24.93381568 -0.01424914 29.14746094 -0.01895142 C36.22204135 -0.02440141 43.29652764 -0.01723726 50.37109375 -0.00292969 C58.53728147 0.01339539 66.70324445 0.00810635 74.86942673 -0.0084089 C81.89472749 -0.02204538 88.91996081 -0.02393288 95.94527054 -0.0160929 C100.13505993 -0.01142824 104.32474385 -0.01075817 108.51452637 -0.02070236 C112.45448774 -0.02940129 116.39416079 -0.02329707 120.33409119 -0.00601959 C121.77558413 -0.00207031 123.21710156 -0.00316196 124.65858459 -0.00980759 C133.55429492 -0.04702198 140.75083627 -0.02299011 148.078125 5.51318359 C151.39125087 9.86757759 153.34098853 14.16908412 153.2109375 19.72412109 C152.25152624 25.46100882 149.65641706 29.5961359 145.265625 33.38818359 C141.759286 35.60473109 138.85308189 35.64384131 134.75076294 35.65560913 C134.09821026 35.66014024 133.44565758 35.66467136 132.77333057 35.66933978 C130.58856098 35.68199159 128.40404043 35.68036294 126.21923828 35.67871094 C124.65204549 35.68469571 123.08485564 35.69150113 121.51766968 35.69906616 C117.26142532 35.71673853 113.00526136 35.72142206 108.74898386 35.72269773 C105.19532067 35.72459712 101.64167619 35.73195509 98.08802021 35.73904192 C89.7033645 35.75532813 81.31875174 35.76021066 72.93408203 35.75878906 C64.28621491 35.7575875 55.63859732 35.77869162 46.99079335 35.81027639 C39.56476611 35.83643183 32.1388204 35.84715667 24.71274745 35.84587824 C20.27810641 35.8453684 15.8436871 35.85106394 11.40909195 35.87223434 C7.23769807 35.89160451 3.06673773 35.89174977 -1.10467148 35.87720108 C-2.63409051 35.87511036 -4.16353659 35.87982965 -5.69290924 35.891922 C-7.78429628 35.90738471 -9.87419024 35.89806211 -11.96554565 35.88265991 C-13.13471464 35.88374945 -14.30388363 35.88483898 -15.50848198 35.88596153 C-20.42392707 35.12747385 -23.48321011 32.6045939 -26.984375 29.20068359 C-29.78412892 24.70107907 -31.18824139 20.30049293 -30.359375 14.98193359 C-28.89391131 9.98603464 -26.9662565 6.58560517 -22.734375 3.38818359 C-15.31991675 -0.2760142 -8.13311371 -0.03749585 0 0 Z " fill="#000000" transform="translate(194.734375,398.61181640625)"/>
<path d="M0 0 C0.65255268 -0.00453111 1.30510536 -0.00906223 1.97743237 -0.01373065 C4.16220196 -0.02638246 6.34672251 -0.02475381 8.53152466 -0.02310181 C10.09871745 -0.02908658 11.6659073 -0.035892 13.23309326 -0.04345703 C17.48933762 -0.0611294 21.74550158 -0.06581293 26.00177908 -0.0670886 C29.55544227 -0.06898798 33.10908675 -0.07634596 36.66274273 -0.08343279 C45.04739844 -0.099719 53.4320112 -0.10460153 61.81668091 -0.10317993 C70.46454803 -0.10197837 79.11216562 -0.12308249 87.75996959 -0.15466726 C95.18599683 -0.18082269 102.61194254 -0.19154754 110.03801548 -0.19026911 C114.47265653 -0.18975927 118.90707584 -0.1954548 123.34167099 -0.21662521 C127.51306487 -0.23599538 131.68402521 -0.23614064 135.85543442 -0.22159195 C137.38485345 -0.21950122 138.91429953 -0.22422052 140.44367218 -0.23631287 C142.53505922 -0.25177558 144.62495318 -0.24245298 146.71630859 -0.22705078 C147.88547758 -0.22814032 149.05464657 -0.22922985 150.25924492 -0.2303524 C155.17469001 0.52813528 158.23397305 3.05101523 161.73513794 6.45492554 C164.53489186 10.95453006 165.93900433 15.3551162 165.11013794 20.67367554 C163.64653683 25.66322477 161.74760138 29.11690908 157.48513794 32.26742554 C149.93677183 35.96701241 142.05789489 35.69418072 133.83670044 35.65560913 C132.3721579 35.65968096 130.90761844 35.66502626 129.44308472 35.67153931 C125.48851654 35.68514614 121.53418473 35.6799419 117.57961273 35.67040205 C113.42783503 35.66277088 109.27607665 35.66986062 105.1242981 35.67456055 C98.15404655 35.68000807 91.18389058 35.67285289 84.21365356 35.65853882 C76.17186384 35.64221421 68.13030234 35.64750343 60.08851814 35.66401803 C53.16594054 35.67766156 46.24343137 35.67953858 39.32084465 35.67170203 C35.19419492 35.66704123 31.06765224 35.66635655 26.94100952 35.67631149 C23.06012617 35.68502076 19.17953516 35.67888758 15.29868317 35.66162872 C13.88018528 35.65768491 12.4616625 35.65876156 11.04317474 35.66541672 C2.08744416 35.70353895 -5.97922191 35.61985521 -13.38986206 30.14242554 C-16.62844528 25.76081294 -18.58974412 21.46595905 -18.46017456 15.93148804 C-17.5007633 10.19460031 -14.90565412 6.05947323 -10.51486206 2.26742554 C-7.00852306 0.05087804 -4.10231895 0.01176782 0 0 Z " fill="#000000" transform="translate(182.51486206054688,345.7325744628906)"/>
</svg>
