<?xml version="1.0" encoding="UTF-8"?>
<svg version="1.1" xmlns="http://www.w3.org/2000/svg" width="134" height="134">
<path d="M0 0 C44.22 0 88.44 0 134 0 C134 44.22 134 88.44 134 134 C89.78 134 45.56 134 0 134 C0 89.78 0 45.56 0 0 Z " fill="#087DAF" transform="translate(0,0)"/>
<path d="M0 0 C10.0990099 0 10.0990099 0 16.375 2.75 C17.66860014 3.30365302 18.96287822 3.85572461 20.2578125 4.40625 C20.88719727 4.67824219 21.51658203 4.95023438 22.16503906 5.23046875 C25.65974124 6.69604902 29.24775804 7.90377096 32.828125 9.140625 C35 10 35 10 38 12 C38.375 14.5 38.375 14.5 38 17 C34.3440606 19.43729293 32.47299212 19.26838474 28.125 19.25 C26.91070312 19.25515625 25.69640625 19.2603125 24.4453125 19.265625 C21.17555789 19.01353508 18.93480445 18.40602799 16 17 C16.66592712 20.13080583 16.66592712 20.13080583 19.13061523 21.16821289 C22.49334817 22.14301346 25.40884818 22.27278252 28.91015625 22.30859375 C30.88918945 22.34629883 30.88918945 22.34629883 32.90820312 22.38476562 C34.99063025 22.41354814 37.07297521 22.43759409 39.15551758 22.45629883 C41.17806842 22.47797497 43.20039565 22.51804965 45.22265625 22.55859375 C47.02875366 22.57877563 47.02875366 22.57877563 48.87133789 22.59936523 C52.22429348 23.02872147 53.66188198 23.59088867 56 26 C56.25 28.6875 56.25 28.6875 56 31 C54.81664062 31.45890625 53.63328125 31.9178125 52.4140625 32.390625 C51.65254883 32.68646484 50.89103516 32.98230469 50.10644531 33.28710938 C48.44762077 33.93079336 46.78811001 34.57271159 45.12792969 35.21289062 C40.07085459 37.16879758 35.06957507 39.20508404 30.140625 41.46875 C24.01498745 42.98898122 16.55630201 39.58654 10.625 37.9375 C7.11875 36.968125 3.6125 35.99875 0 35 C0 23.45 0 11.9 0 0 Z " fill="#F6FCFD" transform="translate(50,46)"/>
<path d="M0 0 C0.33 0 0.66 0 1 0 C1.09796875 0.72703125 1.1959375 1.4540625 1.296875 2.203125 C3.91679911 19.81985608 10.88244835 35.58721292 25 47 C36.73709407 55.34737352 47.79062272 59.28312771 62 61 C62 61.33 62 61.66 62 62 C41.54 62 21.08 62 0 62 C0 41.54 0 21.08 0 0 Z " fill="#F7FCFD" transform="translate(0,72)"/>
<path d="M0 0 C0.33 0 0.66 0 1 0 C1 19.8 1 39.6 1 60 C-19.46 60 -39.92 60 -61 60 C-61 59.67 -61 59.34 -61 59 C-59.98421875 58.84144531 -58.9684375 58.68289062 -57.921875 58.51953125 C-40.50616246 55.64063769 -25.46736439 48.99486512 -14 35 C-7.98520501 26.24923328 -3.20272844 17.58787037 -1.3125 7.0625 C-1.18294922 6.37865234 -1.05339844 5.69480469 -0.91992188 4.99023438 C-0.60610402 3.32816202 -0.30200834 1.66425873 0 0 Z " fill="#FAFDFE" transform="translate(133,74)"/>
<path d="M0 0 C19.14 0 38.28 0 58 0 C58 19.47 58 38.94 58 59 C57.67 59 57.34 59 57 59 C56.79246094 58.00742187 56.58492187 57.01484375 56.37109375 55.9921875 C52.14362762 36.88451425 43.42576913 22.01346147 27.09375 10.75 C18.66343981 5.98133969 9.3763507 3.2319678 0 1 C0 0.67 0 0.34 0 0 Z " fill="#F8FDFD" transform="translate(76,0)"/>
<path d="M0 0 C20.13 0 40.26 0 61 0 C61 0.33 61 0.66 61 1 C59.54980469 1.25523438 59.54980469 1.25523438 58.0703125 1.515625 C39.72820308 4.86838209 23.7993016 12.43397982 12.7734375 28.1796875 C6.52611797 37.80321801 3.60554804 46.91256152 1 58 C0.67 58 0.34 58 0 58 C0 38.86 0 19.72 0 0 Z " fill="#F7FDFE" transform="translate(0,0)"/>
<path d="M0 0 C5.28 0 10.56 0 16 0 C16 13.86 16 27.72 16 42 C10.72 42 5.44 42 0 42 C0 28.14 0 14.28 0 0 Z " fill="#E7F6FA" transform="translate(27,46)"/>
<path d="M0 0 C1.01126953 0.23009766 1.01126953 0.23009766 2.04296875 0.46484375 C5.46877952 1.08483857 8.83893447 1.3352574 12.3125 1.5625 C13.56675781 1.64628906 14.82101563 1.73007813 16.11328125 1.81640625 C17.54220703 1.90728516 17.54220703 1.90728516 19 2 C19 2.66 19 3.32 19 4 C20.27617188 3.98839844 21.55234375 3.97679688 22.8671875 3.96484375 C24.53645687 3.95546583 26.20572783 3.94636563 27.875 3.9375 C29.13763672 3.92493164 29.13763672 3.92493164 30.42578125 3.91210938 C31.23144531 3.90888672 32.03710938 3.90566406 32.8671875 3.90234375 C33.98262939 3.89448853 33.98262939 3.89448853 35.12060547 3.88647461 C37 4 37 4 39 5 C38.67 5.99 38.34 6.98 38 8 C37.34 7.67 36.68 7.34 36 7 C33.83156052 6.88083268 31.65976083 6.82079693 29.48828125 6.7890625 C28.17279297 6.76070313 26.85730469 6.73234375 25.50195312 6.703125 C23.41317368 6.66204869 21.32461336 6.62515378 19.2355957 6.59863281 C17.21518723 6.57077505 15.19579075 6.52488741 13.17578125 6.4765625 C11.96833252 6.45674316 10.76088379 6.43692383 9.5168457 6.41650391 C5.4405543 5.93374423 2.67891095 4.77249394 -1 3 C-0.67 2.01 -0.34 1.02 0 0 Z " fill="#14759D" transform="translate(66,63)"/>
<path d="M0 0 C0.66 0.33 1.32 0.66 2 1 C2.1875 3.375 2.1875 3.375 2 6 C-1.6559394 8.43729293 -3.52700788 8.26838474 -7.875 8.25 C-9.08929688 8.25515625 -10.30359375 8.2603125 -11.5546875 8.265625 C-14.82444211 8.01353508 -17.06519555 7.40602799 -20 6 C-15.85340627 4.80200551 -12.00630953 5.1103808 -7.75 5.4375 C-7.00492188 5.48970703 -6.25984375 5.54191406 -5.4921875 5.59570312 C-3.66105139 5.7248217 -1.83046187 5.86165114 0 6 C0 4.02 0 2.04 0 0 Z " fill="#CFF2F8" transform="translate(86,57)"/>
<path d="M0 0 C0.66 0.33 1.32 0.66 2 1 C1.07421875 2.984375 1.07421875 2.984375 -1 5 C-4.06833622 5.52339018 -7.08608398 5.37472825 -10.1875 5.25 C-11.03248047 5.23195312 -11.87746094 5.21390625 -12.74804688 5.1953125 C-14.83251573 5.14820586 -16.91640144 5.07646233 -19 5 C-19 4.67 -19 4.34 -19 4 C-17.87980469 3.79503906 -16.75960937 3.59007812 -15.60546875 3.37890625 C-14.13279176 3.10688311 -12.66013664 2.83474151 -11.1875 2.5625 C-10.44951172 2.42779297 -9.71152344 2.29308594 -8.95117188 2.15429688 C-5.88684924 1.58580263 -2.96071047 0.98690349 0 0 Z " fill="#C7EEF5" transform="translate(91,129)"/>
<path d="M0 0 C0.33 0 0.66 0 1 0 C1.738041 15.92938497 1.738041 15.92938497 -3 22 C-3.66 21.67 -4.32 21.34 -5 21 C-4.70996094 19.98292969 -4.70996094 19.98292969 -4.4140625 18.9453125 C-2.65857742 12.67075691 -1.18137708 6.40723336 0 0 Z " fill="#D2F3FA" transform="translate(133,74)"/>
<path d="M0 0 C0.309375 0.9590625 0.309375 0.9590625 0.625 1.9375 C1.07875 2.618125 1.5325 3.29875 2 4 C3.99760305 4.34740923 5.99787771 4.67966043 8 5 C10.375 6.9375 10.375 6.9375 12 9 C12 9.66 12 10.32 12 11 C8.35524815 9.63649571 5.08755513 7.998536 1.75 6 C0.44289063 5.2265625 0.44289063 5.2265625 -0.890625 4.4375 C-3 3 -3 3 -4 1 C-2 0 -2 0 0 0 Z " fill="#1D7FAC" transform="translate(28,117)"/>
<path d="M0 0 C0.33 0.66 0.66 1.32 1 2 C0.01 3.485 0.01 3.485 -1 5 C-1.38499891 6.65549531 -1.72793135 8.3222433 -2 10 C-2.99 10 -3.98 10 -5 10 C-5.99 11.98 -6.98 13.96 -8 16 C-8.66 16 -9.32 16 -10 16 C-8.69091868 12.44408198 -7.12739559 9.44509001 -5 6.3125 C-4.2265625 5.16201172 -4.2265625 5.16201172 -3.4375 3.98828125 C-2 2 -2 2 0 0 Z " fill="#2485AB" transform="translate(17,22)"/>
<path d="M0 0 C0.33 0 0.66 0 1 0 C2.06965872 6.32448699 3.13329546 12.64416673 4 19 C3.67 18.01 3.34 17.02 3 16 C2.01 16 1.02 16 0 16 C0 10.72 0 5.44 0 0 Z " fill="#B9E7F4" transform="translate(0,72)"/>
<path d="M0 0 C-0.93972656 0.38091797 -0.93972656 0.38091797 -1.8984375 0.76953125 C-2.71570312 1.11371094 -3.53296875 1.45789063 -4.375 1.8125 C-5.18710937 2.14894531 -5.99921875 2.48539062 -6.8359375 2.83203125 C-9.30147458 3.94439082 -9.30147458 3.94439082 -11 7 C-13.625 7.1875 -13.625 7.1875 -16 7 C-11.99405619 2.32639889 -6.27505804 -2.17105803 0 0 Z " fill="#2C88AC" transform="translate(46,5)"/>
<path d="M0 0 C0.33 0 0.66 0 1 0 C0.85936865 2.29199177 0.71234057 4.58359186 0.5625 6.875 C0.48128906 8.15117188 0.40007812 9.42734375 0.31640625 10.7421875 C0 14 0 14 -1 16 C-1.66 16 -2.32 16 -3 16 C-2.40984815 10.49191603 -1.43336231 5.35121931 0 0 Z " fill="#288AB1" transform="translate(3,46)"/>
<path d="M0 0 C1.43655854 -0.08131463 2.8744483 -0.13933559 4.3125 -0.1875 C5.51326172 -0.23970703 5.51326172 -0.23970703 6.73828125 -0.29296875 C9.47851584 0.06198392 10.29171079 0.89366282 12 3 C3.96428571 2.19642857 3.96428571 2.19642857 0 0 Z " fill="#C2EEF8" transform="translate(76,0)"/>
<path d="M0 0 C0.66 0 1.32 0 2 0 C2.28875 0.639375 2.5775 1.27875 2.875 1.9375 C3.82823451 4.15206079 3.82823451 4.15206079 6 5 C5.67 5.66 5.34 6.32 5 7 C2.69 5.35 0.38 3.7 -2 2 C-1.34 1.34 -0.68 0.68 0 0 Z " fill="#2A88AF" transform="translate(26,117)"/>
</svg>
