<?xml version="1.0" encoding="UTF-8"?>
<svg version="1.1" xmlns="http://www.w3.org/2000/svg" width="490" height="490">
<path d="M0 0 C161.7 0 323.4 0 490 0 C490 161.7 490 323.4 490 490 C328.3 490 166.6 490 0 490 C0 328.3 0 166.6 0 0 Z " fill="#FEFEFE" transform="translate(0,0)"/>
<path d="M0 0 C3.3125 -0.25 3.3125 -0.25 7 0 C9.39040583 2.55005194 10.53861797 5.04462469 11.54296875 8.359375 C11.80803223 9.2157959 12.0730957 10.0722168 12.34619141 10.95458984 C12.62382324 11.8770752 12.90145508 12.79956055 13.1875 13.75 C13.80176404 15.737481 14.41771058 17.72444262 15.03515625 19.7109375 C15.35500488 20.7431543 15.67485352 21.77537109 16.00439453 22.83886719 C17.642675 28.04054827 19.38516937 33.20658268 21.125 38.375 C24.42877871 48.22666711 27.57847024 58.11213984 30.62792969 68.04541016 C32.93210526 75.53833812 35.3061553 82.97125964 38.04296875 90.3203125 C39.45592275 94.27658371 40.64366779 98.29477199 41.85546875 102.31640625 C43.47099521 107.51586514 45.21850902 112.66955771 46.98193359 117.82055664 C47.3524585 118.91484985 47.3524585 118.91484985 47.73046875 120.03125 C48.06147583 120.99901367 48.06147583 120.99901367 48.39916992 121.98632812 C49.08995189 124.30147223 49.5382911 126.62964953 50 129 C50.6999858 129.00423194 51.3999716 129.00846388 52.12116909 129.01282406 C69.12907933 129.11598975 86.13694592 129.22460607 103.14478207 129.33933926 C111.36953731 129.39469027 119.5942969 129.44817529 127.8190918 129.49731445 C134.98523168 129.54013334 142.15133938 129.58640544 149.3174296 129.63687855 C153.11415098 129.66349806 156.91086591 129.6883515 160.70762444 129.70907402 C164.2772203 129.72861115 167.84675479 129.75274594 171.41629601 129.78049088 C173.35912387 129.79437071 175.30198509 129.80330062 177.24484253 129.81211853 C178.39054214 129.82190735 179.53624176 129.83169617 180.71665955 129.84178162 C181.71864852 129.84823417 182.72063749 129.85468672 183.75298977 129.8613348 C186 130 186 130 187 131 C187.51657208 135.47695806 187.52373411 137.33471612 184.6875 140.9375 C182 143 182 143 179 143 C179 143.66 179 144.32 179 145 C177.62664267 145.96135013 176.24447626 146.9117919 174.828125 147.80859375 C172.89939223 149.06556703 171.08082543 150.41705378 169.25 151.8125 C166.35482889 154.00432446 163.42183106 156.11875973 160.4375 158.1875 C156.15776221 161.16299917 151.9466859 164.22181346 147.75 167.3125 C142.92012397 170.86826297 138.07359586 174.3968582 133.1875 177.875 C117.36333246 189.13685543 117.36333246 189.13685543 101.75 200.6875 C97.32290968 204.02331876 92.86715274 207.31504313 88.375 210.5625 C87.77010742 211.00489014 87.16521484 211.44728027 86.54199219 211.90307617 C82.23183411 215 82.23183411 215 80 215 C80.63895678 220.53028106 81.9269954 225.62264314 83.5625 230.9375 C83.82643555 231.8052002 84.09037109 232.67290039 84.36230469 233.56689453 C87.35578436 243.31041133 90.60658137 252.96736521 93.86425781 262.625 C95.09042107 266.26869752 96.30839604 269.91508309 97.5234375 273.5625 C97.73758301 274.20533936 97.95172852 274.84817871 98.17236328 275.51049805 C99.03884794 278.11222712 99.90498193 280.71407288 100.77111816 283.31591797 C102.80407952 289.42216924 104.83720974 295.52822255 106.8984375 301.625 C107.17413574 302.44307129 107.44983398 303.26114258 107.73388672 304.10400391 C108.21988876 305.54466387 108.70821799 306.98454255 109.19970703 308.42333984 C110.2512617 311.54611438 111.15377386 314.63845348 111.92578125 317.84375 C113.32653527 323.64848594 115.55920253 329.18749827 117.69726562 334.75390625 C119.43755418 339.50804172 120.6638854 342.98490878 119 348 C117 350 117 350 114.24609375 350.39453125 C110.04755331 349.88423933 108.30828618 348.37352383 105.0625 345.6875 C103.91810113 344.76254531 102.77220833 343.8394366 101.625 342.91796875 C101.03203125 342.43634277 100.4390625 341.9547168 99.828125 341.45849609 C96.80645741 339.04777999 93.68728446 336.77448643 90.5625 334.5 C89.9348877 334.04141602 89.30727539 333.58283203 88.66064453 333.11035156 C83.3028967 329.20305894 77.91358521 325.34049845 72.5078125 321.5 C70.03472295 319.74210499 67.57316759 317.9692175 65.1171875 316.1875 C64.48047119 315.72738525 63.84375488 315.26727051 63.18774414 314.79321289 C61.96601947 313.90996369 60.74634489 313.02386963 59.52905273 312.13452148 C57.02066157 310.32611226 54.9551869 308.9850623 52 308 C50.33041193 306.33625987 48.6643176 304.66901243 47 303 C44.62528378 301.09925973 42.16128594 299.33152837 39.6875 297.5625 C38.33830911 296.58625882 36.98934813 295.60969981 35.640625 294.6328125 C35.00318359 294.17293945 34.36574219 293.71306641 33.70898438 293.23925781 C31.76583622 291.83019781 29.84767335 290.39089277 27.9375 288.9375 C24.26885542 286.17389549 20.54408273 283.4901426 16.8125 280.8125 C16.21751709 280.38380615 15.62253418 279.9551123 15.00952148 279.51342773 C13.35030791 278.32727744 11.67549539 277.16303802 10 276 C8.67548828 275.07767578 8.67548828 275.07767578 7.32421875 274.13671875 C5.12292518 272.81937304 5.12292518 272.81937304 2.953125 273.14453125 C0.6995193 274.13161055 -1.21925168 275.29592606 -3.25 276.6875 C-4.42369141 277.48994141 -4.42369141 277.48994141 -5.62109375 278.30859375 C-8.52552627 280.37365004 -11.36572472 282.51163438 -14.17578125 284.703125 C-16 286 -16 286 -18.04296875 286.984375 C-20.15370736 288.07976829 -21.36503179 289.28859172 -23 291 C-24.33499 292.08649681 -25.69013755 293.1486088 -27.0625 294.1875 C-27.75472656 294.71730469 -28.44695312 295.24710937 -29.16015625 295.79296875 C-31 297 -31 297 -33 297 C-33 297.66 -33 298.32 -33 299 C-38.41176471 303 -38.41176471 303 -41 303 C-41 303.66 -41 304.32 -41 305 C-42.84375 306.3046875 -42.84375 306.3046875 -45.5 307.875 C-50.51327315 310.97200272 -55.23944798 314.31927871 -59.9375 317.875 C-60.96351318 318.65145874 -60.96351318 318.65145874 -62.01025391 319.44360352 C-63.36859532 320.4743753 -64.72603528 321.50633621 -66.08251953 322.53955078 C-89.00702106 340 -89.00702106 340 -92 340 C-92 340.66 -92 341.32 -92 342 C-95.49655387 344.6020866 -98.89160936 346.54997977 -103 348 C-103 348.66 -103 349.32 -103 350 C-105.8125 350.25 -105.8125 350.25 -109 350 C-110.9375 348.375 -110.9375 348.375 -112 346 C-111.52047916 341.95958635 -110.54884369 338.17414504 -109.36328125 334.2890625 C-109.03618164 333.2168042 -108.70908203 332.1445459 -108.37207031 331.03979492 C-107.84758301 329.34947144 -107.84758301 329.34947144 -107.3125 327.625 C-106.77447754 325.88150269 -106.77447754 325.88150269 -106.22558594 324.1027832 C-104.03014699 317.0702429 -101.67261386 310.14448632 -99.0090332 303.27709961 C-97.12763432 298.41719539 -95.54596379 293.51489945 -94.0546875 288.5234375 C-89.46460936 273.18917645 -84.54617803 257.92556197 -79.171875 242.84765625 C-76.00823796 233.96812791 -72.97098534 225.23547416 -71 216 C-71.54011719 215.75121094 -72.08023438 215.50242187 -72.63671875 215.24609375 C-81.38472297 210.63350971 -89.36676428 204.04102795 -97.31689453 198.17602539 C-102.32016811 194.48671014 -107.36523661 190.85963862 -112.43334961 187.26000977 C-113.95780943 186.17648877 -115.47904111 185.08842986 -117 184 C-117.79019531 183.4534375 -118.58039063 182.906875 -119.39453125 182.34375 C-119.92433594 181.9003125 -120.45414063 181.456875 -121 181 C-121 180.34 -121 179.68 -121 179 C-121.825 178.79375 -122.65 178.5875 -123.5 178.375 C-128.00253221 176.60614806 -131.22562009 173.98010805 -135 171 C-142.09622626 165.56224022 -149.24971911 160.41844749 -156.796875 155.62890625 C-157.88742188 154.82259766 -157.88742188 154.82259766 -159 154 C-159 153.34 -159 152.68 -159 152 C-159.721875 151.74992188 -160.44375 151.49984375 -161.1875 151.2421875 C-164.25219604 149.88861341 -166.42381931 148.25839963 -169 146.125 C-169.825 145.44695312 -170.65 144.76890625 -171.5 144.0703125 C-172.7375 143.04550781 -172.7375 143.04550781 -174 142 C-174.91910156 141.30777344 -175.83820313 140.61554688 -176.78515625 139.90234375 C-179 138 -179 138 -179.4375 135.4375 C-179 133 -179 133 -177 130 C-174.64555931 129.61523914 -174.64555931 129.61523914 -171.6343689 129.60127258 C-170.49570877 129.58873444 -169.35704865 129.57619629 -168.18388367 129.5632782 C-166.92872452 129.56471329 -165.67356537 129.56614838 -164.38037109 129.56762695 C-163.06334702 129.5574353 -161.74632294 129.54724365 -160.38938904 129.53674316 C-156.77183253 129.50908787 -153.1544332 129.4998772 -149.53678465 129.49388909 C-145.7583969 129.48452747 -141.98012761 129.458326 -138.20181274 129.43388367 C-131.04433576 129.39015382 -123.88688167 129.36164681 -116.72931159 129.33856028 C-108.58183119 129.31154325 -100.43446957 129.26762969 -92.28707385 129.22227156 C-75.52477603 129.12933247 -58.76245695 129.0576943 -42 129 C-41.35604451 127.07977914 -40.71308907 125.15922289 -40.07055664 123.23852539 C-39.53332726 121.6343148 -39.53332726 121.6343148 -38.98524475 119.99769592 C-37.89731931 116.68758475 -36.91953876 113.36064616 -36 110 C-32.13025848 96.10339787 -32.13025848 96.10339787 -29.8359375 90.28125 C-28.66980223 87.09889955 -27.68494686 83.86311086 -26.6875 80.625 C-24.90627695 74.84900824 -23.05337286 69.10353262 -21.125 63.375 C-18.93229041 56.85377911 -16.81912414 50.31142788 -14.75 43.75 C-11.79211775 34.38847267 -8.72589308 25.06489403 -5.625 15.75 C-5.4019519 15.07835815 -5.17890381 14.40671631 -4.94909668 13.71472168 C-4.31415332 11.80402879 -3.67666223 9.8941831 -3.0390625 7.984375 C-2.66990723 6.87803711 -2.30075195 5.77169922 -1.92041016 4.63183594 C-1 2 -1 2 0 0 Z " fill="#E2B138" transform="translate(241,70)"/>
<path d="M0 0 C2.31 0 4.62 0 7 0 C6.01 0.33 5.02 0.66 4 1 C4 89.77 4 178.54 4 270 C4.66 270.33 5.32 270.66 6 271 C5.67 271.66 5.34 272.32 5 273 C3.66804043 273.33878102 2.33443932 273.67112222 1 274 C-1.12832503 275.19250098 -1.12832503 275.19250098 -3.25 276.6875 C-4.42369141 277.48994141 -4.42369141 277.48994141 -5.62109375 278.30859375 C-8.52552627 280.37365004 -11.36572472 282.51163438 -14.17578125 284.703125 C-16 286 -16 286 -18.04296875 286.984375 C-20.15370736 288.07976829 -21.36503179 289.28859172 -23 291 C-24.33499 292.08649681 -25.69013755 293.1486088 -27.0625 294.1875 C-27.75472656 294.71730469 -28.44695312 295.24710937 -29.16015625 295.79296875 C-31 297 -31 297 -33 297 C-33 297.66 -33 298.32 -33 299 C-38.41176471 303 -38.41176471 303 -41 303 C-41 303.66 -41 304.32 -41 305 C-42.84375 306.3046875 -42.84375 306.3046875 -45.5 307.875 C-50.51327315 310.97200272 -55.23944798 314.31927871 -59.9375 317.875 C-60.96351318 318.65145874 -60.96351318 318.65145874 -62.01025391 319.44360352 C-63.36859532 320.4743753 -64.72603528 321.50633621 -66.08251953 322.53955078 C-89.00702106 340 -89.00702106 340 -92 340 C-92 340.66 -92 341.32 -92 342 C-95.49655387 344.6020866 -98.89160936 346.54997977 -103 348 C-103 348.66 -103 349.32 -103 350 C-105.8125 350.25 -105.8125 350.25 -109 350 C-110.9375 348.375 -110.9375 348.375 -112 346 C-111.52047916 341.95958635 -110.54884369 338.17414504 -109.36328125 334.2890625 C-109.03618164 333.2168042 -108.70908203 332.1445459 -108.37207031 331.03979492 C-107.84758301 329.34947144 -107.84758301 329.34947144 -107.3125 327.625 C-106.77447754 325.88150269 -106.77447754 325.88150269 -106.22558594 324.1027832 C-104.03014699 317.0702429 -101.67261386 310.14448632 -99.0090332 303.27709961 C-97.12763432 298.41719539 -95.54596379 293.51489945 -94.0546875 288.5234375 C-89.46460936 273.18917645 -84.54617803 257.92556197 -79.171875 242.84765625 C-76.00823796 233.96812791 -72.97098534 225.23547416 -71 216 C-71.54011719 215.75121094 -72.08023438 215.50242187 -72.63671875 215.24609375 C-81.38472297 210.63350971 -89.36676428 204.04102795 -97.31689453 198.17602539 C-102.32016811 194.48671014 -107.36523661 190.85963862 -112.43334961 187.26000977 C-113.95780943 186.17648877 -115.47904111 185.08842986 -117 184 C-117.79019531 183.4534375 -118.58039063 182.906875 -119.39453125 182.34375 C-119.92433594 181.9003125 -120.45414063 181.456875 -121 181 C-121 180.34 -121 179.68 -121 179 C-121.825 178.79375 -122.65 178.5875 -123.5 178.375 C-128.00253221 176.60614806 -131.22562009 173.98010805 -135 171 C-142.09622626 165.56224022 -149.24971911 160.41844749 -156.796875 155.62890625 C-157.88742188 154.82259766 -157.88742188 154.82259766 -159 154 C-159 153.34 -159 152.68 -159 152 C-159.721875 151.74992188 -160.44375 151.49984375 -161.1875 151.2421875 C-164.25219604 149.88861341 -166.42381931 148.25839963 -169 146.125 C-169.825 145.44695312 -170.65 144.76890625 -171.5 144.0703125 C-172.7375 143.04550781 -172.7375 143.04550781 -174 142 C-174.91910156 141.30777344 -175.83820313 140.61554688 -176.78515625 139.90234375 C-179 138 -179 138 -179.4375 135.4375 C-179 133 -179 133 -177 130 C-174.64555931 129.61523914 -174.64555931 129.61523914 -171.6343689 129.60127258 C-170.49570877 129.58873444 -169.35704865 129.57619629 -168.18388367 129.5632782 C-166.92872452 129.56471329 -165.67356537 129.56614838 -164.38037109 129.56762695 C-163.06334702 129.5574353 -161.74632294 129.54724365 -160.38938904 129.53674316 C-156.77183253 129.50908787 -153.1544332 129.4998772 -149.53678465 129.49388909 C-145.7583969 129.48452747 -141.98012761 129.458326 -138.20181274 129.43388367 C-131.04433576 129.39015382 -123.88688167 129.36164681 -116.72931159 129.33856028 C-108.58183119 129.31154325 -100.43446957 129.26762969 -92.28707385 129.22227156 C-75.52477603 129.12933247 -58.76245695 129.0576943 -42 129 C-41.35604451 127.07977914 -40.71308907 125.15922289 -40.07055664 123.23852539 C-39.53332726 121.6343148 -39.53332726 121.6343148 -38.98524475 119.99769592 C-37.89731931 116.68758475 -36.91953876 113.36064616 -36 110 C-32.13025848 96.10339787 -32.13025848 96.10339787 -29.8359375 90.28125 C-28.66980223 87.09889955 -27.68494686 83.86311086 -26.6875 80.625 C-24.90627695 74.84900824 -23.05337286 69.10353262 -21.125 63.375 C-18.93229041 56.85377911 -16.81912414 50.31142788 -14.75 43.75 C-11.79211775 34.38847267 -8.72589308 25.06489403 -5.625 15.75 C-5.4019519 15.07835815 -5.17890381 14.40671631 -4.94909668 13.71472168 C-4.31415332 11.80402879 -3.67666223 9.8941831 -3.0390625 7.984375 C-2.66990723 6.87803711 -2.30075195 5.77169922 -1.92041016 4.63183594 C-1 2 -1 2 0 0 Z " fill="#F9C13C" transform="translate(241,70)"/>
<path d="M0 0 C3 2 3 2 3.875 4.8125 C5.26740735 8.75765416 6.63381093 10.51194721 10 13 C12.8549889 13.47403589 15.07160351 13.29283965 18 13 C18.33 12.67 18.66 12.34 19 12 C20.96369153 11.9059933 22.93079199 11.88256619 24.89672852 11.88647461 C26.15796036 11.88655014 27.4191922 11.88662567 28.71864319 11.88670349 C30.10539794 11.8918109 31.49215229 11.89702691 32.87890625 11.90234375 C34.28995209 11.90420799 35.70099857 11.90563186 37.11204529 11.90663147 C40.83240535 11.91045621 44.5527266 11.9202861 48.27307129 11.93133545 C52.06680781 11.94155052 55.86055058 11.94612929 59.65429688 11.95117188 C67.10288231 11.96190842 74.55143572 11.9789843 82 12 C82 12.66 82 13.32 82 14 C82.71774597 13.99555878 83.43549194 13.99111755 84.17498779 13.98654175 C90.94314642 13.94644713 97.71128726 13.91600647 104.47953415 13.89637566 C107.95906394 13.88594392 111.43849549 13.87179599 114.91796875 13.84912109 C118.91928037 13.82320905 122.92048897 13.81352218 126.921875 13.8046875 C128.16990906 13.79436493 129.41794312 13.78404236 130.70379639 13.77340698 C131.86469788 13.77325592 133.02559937 13.77310486 134.22167969 13.77294922 C135.24316101 13.768508 136.26464233 13.76406677 137.31707764 13.75949097 C140.10041328 14.00900149 141.72228548 14.38890866 144 16 C144.9375 19.4375 144.9375 19.4375 145 23 C143.5625 24.9375 143.5625 24.9375 142 26 C141.34 25.67 140.68 25.34 140 25 C140.33 24.67 140.66 24.34 141 24 C141 21.69 141 19.38 141 17 C96.12 16.67 51.24 16.34 5 16 C2.91532115 10.4408564 1.31408308 5.66066558 0 0 Z " fill="#F7EDD1" transform="translate(286,184)"/>
<path d="M0 0 C1.29615234 -0.00128906 2.59230469 -0.00257813 3.92773438 -0.00390625 C4.60650635 -0.00181152 5.28527832 0.0002832 5.98461914 0.00244141 C8.05427414 0.0077812 10.12371125 0.00250057 12.19335938 -0.00390625 C13.49080078 -0.00261719 14.78824219 -0.00132812 16.125 0 C17.92215454 0.00169189 17.92215454 0.00169189 19.75561523 0.00341797 C22.62890625 0.1328125 22.62890625 0.1328125 24.62890625 1.1328125 C24.62890625 1.7928125 24.62890625 2.4528125 24.62890625 3.1328125 C48.05890625 3.1328125 71.48890625 3.1328125 95.62890625 3.1328125 C95.62890625 3.4628125 95.62890625 3.7928125 95.62890625 4.1328125 C51.07890625 4.1328125 6.52890625 4.1328125 -39.37109375 4.1328125 C-40.03109375 6.7728125 -40.69109375 9.4128125 -41.37109375 12.1328125 C-41.70109375 12.1328125 -42.03109375 12.1328125 -42.37109375 12.1328125 C-42.04109375 8.8328125 -41.71109375 5.5328125 -41.37109375 2.1328125 C-39.83400757 2.09522827 -39.83400757 2.09522827 -38.26586914 2.05688477 C-34.47699699 1.96296766 -30.68831494 1.86270933 -26.8996582 1.76049805 C-25.25745072 1.71708953 -23.61519636 1.67541892 -21.97290039 1.63549805 C-19.6172063 1.5779381 -17.26174947 1.51420358 -14.90625 1.44921875 C-14.16770279 1.43250626 -13.42915558 1.41579376 -12.66822815 1.39857483 C-8.02047641 1.26237685 -4.76159251 0.00448693 0 0 Z " fill="#FBEBC2" transform="translate(103.37109375,195.8671875)"/>
<path d="M0 0 C0.66 0 1.32 0 2 0 C1.67 2.31 1.34 4.62 1 7 C-22.76 7 -46.52 7 -71 7 C-71 6.34 -71 5.68 -71 5 C-71.66 4.67 -72.32 4.34 -73 4 C-64.51556717 3.97677748 -56.03114774 3.95903452 -47.54669094 3.94818783 C-43.60655528 3.94298063 -39.66644146 3.93592245 -35.72631836 3.92456055 C-31.92026112 3.91365456 -28.11422482 3.90770688 -24.30815315 3.90512276 C-22.85977919 3.90328237 -21.4114063 3.89968863 -19.96304131 3.89426994 C-17.92642664 3.88695702 -15.88989727 3.88601335 -13.85327148 3.88647461 C-12.69633286 3.884254 -11.53939423 3.88203339 -10.34739685 3.87974548 C-6.83829021 4.00580939 -3.46489263 4.44399579 0 5 C0 3.35 0 1.7 0 0 Z " fill="#FEFDEA" transform="translate(199,192)"/>
<path d="M0 0 C2.18975773 3.28463659 2.99806563 6.20696275 4 10 C4.6999858 10.00423194 5.3999716 10.00846388 6.12116909 10.01282406 C23.12907933 10.11598975 40.13694592 10.22460607 57.14478207 10.33933926 C65.36953731 10.39469027 73.5942969 10.44817529 81.8190918 10.49731445 C88.98523168 10.54013334 96.15133938 10.58640544 103.3174296 10.63687855 C107.11415098 10.66349806 110.91086591 10.6883515 114.70762444 10.70907402 C118.2772203 10.72861115 121.84675479 10.75274594 125.41629601 10.78049088 C127.35912387 10.79437071 129.30198509 10.80330062 131.24484253 10.81211853 C132.96339195 10.82680176 132.96339195 10.82680176 134.71665955 10.84178162 C136.21964301 10.85146044 136.21964301 10.85146044 137.75298977 10.8613348 C140 11 140 11 141 12 C141.51657208 16.47695806 141.52373411 18.33471612 138.6875 21.9375 C136 24 136 24 133 24 C133 24.66 133 25.32 133 26 C131.02 26.495 131.02 26.495 129 27 C129 26.34 129 25.68 129 25 C129.66 25 130.32 25 131 25 C131 24.34 131 23.68 131 23 C136.41176471 19 136.41176471 19 139 19 C138.67 17.02 138.34 15.04 138 13 C137.31216525 13.00184359 136.6243305 13.00368717 135.91565228 13.00558662 C119.1908253 13.04972616 102.46601674 13.08283731 85.74114513 13.10362434 C77.65317381 13.11394359 69.56524132 13.12801629 61.47729492 13.15087891 C54.42909018 13.17079296 47.38091357 13.18371172 40.33268148 13.18817699 C36.59956685 13.19078774 32.8665327 13.19693755 29.13344383 13.21146011 C24.96937848 13.22752837 20.80545366 13.22798097 16.64135742 13.22705078 C15.39914429 13.23424133 14.15693115 13.24143188 12.8770752 13.24884033 C11.17964424 13.24471634 11.17964424 13.24471634 9.44792175 13.24050903 C7.9698267 13.24327441 7.9698267 13.24327441 6.46187115 13.24609566 C4 13 4 13 1 11 C0.234375 8.65234375 0.234375 8.65234375 -0.25 5.9375 C-0.42015625 5.03902344 -0.5903125 4.14054688 -0.765625 3.21484375 C-0.84296875 2.48394531 -0.9203125 1.75304687 -1 1 C-0.67 0.67 -0.34 0.34 0 0 Z " fill="#D0AE4A" transform="translate(287,189)"/>
<path d="M0 0 C-4.99204068 3.6776098 -9.99301117 7.34277119 -15 11 C-15.67724121 11.49580566 -16.35448242 11.99161133 -17.05224609 12.50244141 C-18.96859664 13.90268872 -20.8897255 15.29609198 -22.8125 16.6875 C-23.70026123 17.3379126 -23.70026123 17.3379126 -24.60595703 18.00146484 C-28.7706571 21 -28.7706571 21 -31 21 C-30.35824776 26.59667653 -29.03084747 31.74749406 -27.375 37.125 C-26.98610596 38.4087854 -26.98610596 38.4087854 -26.58935547 39.71850586 C-24.27211225 47.29041058 -21.77027834 54.79931238 -19.18505859 62.28369141 C-18.89969238 63.1194873 -18.61432617 63.9552832 -18.3203125 64.81640625 C-18.06523926 65.55318604 -17.81016602 66.28996582 -17.54736328 67.04907227 C-17 69 -17 69 -17 72 C-17.66 72 -18.32 72 -19 72 C-19.495 69.03 -19.495 69.03 -20 66 C-20.66 66 -21.32 66 -22 66 C-22.50546036 63.91798472 -23.00416835 61.83432933 -23.5 59.75 C-23.7784375 58.58984375 -24.056875 57.4296875 -24.34375 56.234375 C-25 53 -25 53 -25 49 C-25.66 49 -26.32 49 -27 49 C-27.33 46.36 -27.66 43.72 -28 41 C-28.66 41 -29.32 41 -30 41 C-33.90246955 25.30193039 -33.90246955 25.30193039 -32 19 C-29.5625 17.1875 -29.5625 17.1875 -27 16 C-26.34 15.01 -25.68 14.02 -25 13 C-24.34 13 -23.68 13 -23 13 C-22.67 12.01 -22.34 11.02 -22 10 C-19.71484375 9.05078125 -19.71484375 9.05078125 -16.9375 8.3125 C-16.01839844 8.06113281 -15.09929687 7.80976563 -14.15234375 7.55078125 C-13.44207031 7.36902344 -12.73179687 7.18726563 -12 7 C-12 6.34 -12 5.68 -12 5 C-10.34467377 3.98133771 -8.67739862 2.98189187 -7 2 C-6.67 1.34 -6.34 0.68 -6 0 C-3 -1 -3 -1 0 0 Z " fill="#D8B657" transform="translate(352,264)"/>
<path d="M0 0 C1.32 0 2.64 0 4 0 C4 0.66 4 1.32 4 2 C4.969375 2.268125 5.93875 2.53625 6.9375 2.8125 C8.4534375 3.4003125 8.4534375 3.4003125 10 4 C10.33 4.99 10.66 5.98 11 7 C11.9590625 7.2165625 11.9590625 7.2165625 12.9375 7.4375 C13.618125 7.623125 14.29875 7.80875 15 8 C15.28875 8.639375 15.5775 9.27875 15.875 9.9375 C16.90505873 12.34703737 16.90505873 12.34703737 20.125 13.25 C21.07375 13.4975 22.0225 13.745 23 14 C23 14.66 23 15.32 23 16 C23.969375 16.2475 24.93875 16.495 25.9375 16.75 C26.948125 17.1625 27.95875 17.575 29 18 C31.79342059 25.07270319 26.38994448 35.27504801 24 42 C23.67 42.66 23.34 43.32 23 44 C22.93049459 45.54023996 22.91547643 47.08334988 22.9375 48.625 C22.94652344 49.44226563 22.95554688 50.25953125 22.96484375 51.1015625 C22.97644531 51.72804688 22.98804688 52.35453125 23 53 C21.515 53.495 21.515 53.495 20 54 C18.99850282 56.5765521 18.18165643 59.03717632 17.4375 61.6875 C17.0199522 63.1081967 16.60198955 64.52877155 16.18359375 65.94921875 C15.98620605 66.63290527 15.78881836 67.3165918 15.58544922 68.02099609 C14.79173586 70.70399878 13.90468351 73.35265425 13 76 C12.34 76 11.68 76 11 76 C11 77.65 11 79.3 11 81 C10.01 81.495 10.01 81.495 9 82 C11.01367908 71.56548113 14.70678801 61.67322482 18.22265625 51.671875 C18.61767334 50.54322021 19.01269043 49.41456543 19.41967773 48.25170898 C20.20445969 46.01244963 20.99409081 43.77488194 21.78930664 41.53930664 C24.27889044 34.44018304 26.30641561 27.32981349 28 20 C27.39873291 19.70883301 26.79746582 19.41766602 26.17797852 19.11767578 C20.79453668 16.35504864 15.93764614 12.49309239 11 9 C10.16952148 8.4126709 10.16952148 8.4126709 9.32226562 7.81347656 C2.58563417 3.03119959 2.58563417 3.03119959 0 1 C0 0.67 0 0.34 0 0 Z " fill="#EAC763" transform="translate(142,266)"/>
<path d="M0 0 C1.125 3.75 1.125 3.75 0 6 C0.00417846 7.76957834 0.01443704 9.53949417 0.06518555 11.30834961 C0.27274441 18.69659789 0.3250878 26.19930603 -3 33 C-4.485 33.495 -4.485 33.495 -6 34 C-6.04254356 32.00045254 -6.04080783 29.99958364 -6 28 C-5.67 27.67 -5.34 27.34 -5 27 C-5.06050077 25.10330073 -5.14942117 23.20749667 -5.25 21.3125 C-5.35571278 13.36642261 -3.04006908 7.24187884 0 0 Z " fill="#FBBE44" transform="translate(222,128)"/>
<path d="M0 0 C0.33 0 0.66 0 1 0 C1.20674944 5.78898419 0.59162079 10.42932723 -1 16 C-0.34 16 0.32 16 1 16 C1 14.02 1 12.04 1 10 C1.66 9.67 2.32 9.34 3 9 C3 11.31 3 13.62 3 16 C3.66 16.33 4.32 16.66 5 17 C5 16.34 5 15.68 5 15 C5.66 15 6.32 15 7 15 C7 14.34 7 13.68 7 13 C7.66 13 8.32 13 9 13 C9.33 12.34 9.66 11.68 10 11 C10 11.66 10 12.32 10 13 C10.66 13.33 11.32 13.66 12 14 C7.25 18 7.25 18 5 18 C5 18.66 5 19.32 5 20 C2.1875 20.25 2.1875 20.25 -1 20 C-2.9375 18.375 -2.9375 18.375 -4 16 C-3.74033182 10.54696812 -1.6304573 5.18875089 0 0 Z " fill="#F1C45D" transform="translate(133,400)"/>
<path d="M0 0 C0.66 0.33 1.32 0.66 2 1 C1 4 1 4 -1.9375 5.5 C-3.4534375 6.2425 -3.4534375 6.2425 -5 7 C-5.99 8.485 -5.99 8.485 -7 10 C-6.67 10.99 -6.34 11.98 -6 13 C-6.66 13 -7.32 13 -8 13 C-8.33 12.34 -8.66 11.68 -9 11 C-9.99 10.67 -10.98 10.34 -12 10 C-12.2475 10.598125 -12.495 11.19625 -12.75 11.8125 C-14.19192497 14.33586869 -15.52549626 15.50030076 -18 17 C-18.99 17 -19.98 17 -21 17 C-21.33 17.99 -21.66 18.98 -22 20 C-24.9375 21.75 -24.9375 21.75 -28 23 C-28.66 22.67 -29.32 22.34 -30 22 C-20.2369328 14.33254066 -10.44415292 6.7254015 0 0 Z " fill="#FCF5DA" transform="translate(406,224)"/>
<path d="M0 0 C3.465 1.98 3.465 1.98 7 4 C7.33468721 8.46249619 6.47259539 11.60943418 4.86206055 15.74414062 C3.38167353 19.61805058 2.11118889 23.56224703 0.8125 27.5 C0.53986328 28.32242187 0.26722656 29.14484375 -0.01367188 29.9921875 C-0.67717292 31.99433101 -1.3387862 33.99709996 -2 36 C-2.33 36 -2.66 36 -3 36 C-3.04254356 34.00045254 -3.04080783 31.99958364 -3 30 C-2.67 29.67 -2.34 29.34 -2 29 C-1.63239269 26.67182036 -1.29758419 24.3381615 -1 22 C-0.34 22 0.32 22 1 22 C1 19.03 1 16.06 1 13 C1.66 12.67 2.32 12.34 3 12 C2.49202991 7.6822542 1.80317221 3.96697886 0 0 Z " fill="#FDF4D6" transform="translate(163,282)"/>
<path d="M0 0 C2.6457485 2.6457485 3.22933981 5.5627383 4.25 9.0625 C6.05582155 15.0604562 8.00697745 20.98007947 10.125 26.875 C16 43.31123338 16 43.31123338 16 48 C15.34 48 14.68 48 14 48 C13.67 46.35 13.34 44.7 13 43 C12.34 43 11.68 43 11 43 C10.97421875 42.38253906 10.9484375 41.76507813 10.921875 41.12890625 C10.55262966 35.61540198 9.53439055 31.49765671 7.11328125 26.55859375 C5.25659456 22.2914717 4.14738072 17.81535627 2.9296875 13.33203125 C2.3185387 11.14165342 1.63745006 8.96939474 0.8828125 6.82421875 C0 4 0 4 0 0 Z " fill="#D6B961" transform="translate(267,128)"/>
<path d="M0 0 C2.64 0.33 5.28 0.66 8 1 C8.66 2.98 9.32 4.96 10 7 C10.7425 6.9175 11.485 6.835 12.25 6.75 C15 7 15 7 17.3125 8.875 C19 11 19 11 19 13 C20.258125 13.185625 21.51625 13.37125 22.8125 13.5625 C25.41870604 14.1852218 26.63060889 14.47900211 28.19921875 16.69140625 C29 18.625 29 18.625 30 22 C27.23369339 20.70177716 24.90075831 19.25980587 22.5 17.375 C17.95880616 13.88309716 13.16955825 10.81620304 8.34375 7.734375 C7.5703125 7.16203125 6.796875 6.5896875 6 6 C6 5.34 6 4.68 6 4 C5.195625 3.71125 4.39125 3.4225 3.5625 3.125 C1 2 1 2 0 0 Z " fill="#EDC75C" transform="translate(76,218)"/>
<path d="M0 0 C-0.8125 1.9375 -0.8125 1.9375 -2 4 C-2.99 4.33 -3.98 4.66 -5 5 C-5 5.66 -5 6.32 -5 7 C-6.98689731 8.35278115 -8.98745218 9.68568305 -11 11 C-11.33 11.66 -11.66 12.32 -12 13 C-12.7425 13.28875 -13.485 13.5775 -14.25 13.875 C-17.33778039 15.13818288 -19.47888085 16.83904073 -22 19 C-21.01 19.33 -20.02 19.66 -19 20 C-19 20.66 -19 21.32 -19 22 C-20.65 21.67 -22.3 21.34 -24 21 C-24 20.34 -24 19.68 -24 19 C-24.99 18.67 -25.98 18.34 -27 18 C-26.28457031 17.53851563 -25.56914062 17.07703125 -24.83203125 16.6015625 C-18.37931092 12.37766019 -12.20856028 7.9711196 -6.19067383 3.15087891 C-2.20726572 0 -2.20726572 0 0 0 Z " fill="#FDF5CF" transform="translate(176,392)"/>
<path d="M0 0 C0.33 0.66 0.66 1.32 1 2 C2.89533342 2.46523063 2.89533342 2.46523063 5.0625 2.625 C6.361875 2.74875 7.66125 2.8725 9 3 C5.99764638 6.17391668 2.80246358 8.71252601 -0.75 11.25 C-1.73484375 11.95640625 -2.7196875 12.6628125 -3.734375 13.390625 C-4.48203125 13.92171875 -5.2296875 14.4528125 -6 15 C-6 12 -6 12 -4 9 C-4.99 8.67 -5.98 8.34 -7 8 C-6.02133662 6.85373678 -5.04205413 5.70800212 -4.0625 4.5625 C-3.51722656 3.92441406 -2.97195312 3.28632813 -2.41015625 2.62890625 C-1.63204305 1.73008851 -0.84063472 0.84063472 0 0 Z " fill="#F8C23B" transform="translate(231,341)"/>
<path d="M0 0 C3.19845343 2.90768494 4.81506641 5.34520464 5.30078125 9.69140625 C5.30658203 11.11259766 5.30658203 11.11259766 5.3125 12.5625 C5.32925781 13.51253906 5.34601563 14.46257812 5.36328125 15.44140625 C5 18 5 18 3.72265625 19.8203125 C0.75762537 21.85078716 -2.57580537 21.37747027 -6 21 C-10.59588618 19.79631553 -13.50257745 17.09074551 -17 14 C-16.67 13.01 -16.34 12.02 -16 11 C-15.27554687 11.5775 -14.55109375 12.155 -13.8046875 12.75 C-12.83789062 13.4925 -11.87109375 14.235 -10.875 15 C-9.92367188 15.7425 -8.97234375 16.485 -7.9921875 17.25 C-4.61925248 19.22268262 -2.84006078 19.60918811 1 19 C3.63758632 15.04362052 2.89182373 13.60775592 2 9 C1.36406504 5.99245797 0.69915368 2.99346381 0 0 Z " fill="#FEF9D9" transform="translate(357,400)"/>
<path d="M0 0 C5.4611399 0.35233161 5.4611399 0.35233161 8 1 C9.5 3.0625 9.5 3.0625 10 5 C10.66 5 11.32 5 12 5 C12.33 5.99 12.66 6.98 13 8 C14.62948064 9.22445284 14.62948064 9.22445284 16.5625 10.1875 C18.2640625 11.0846875 18.2640625 11.0846875 20 12 C20 12.66 20 13.32 20 14 C20.928125 14.04125 21.85625 14.0825 22.8125 14.125 C26 15 26 15 27.875 18.0625 C28.24625 19.031875 28.6175 20.00125 29 21 C25.23979527 19.67831117 22.59810264 18.06737277 19.5625 15.5 C14.69766919 11.48890652 9.64375583 7.83583397 4.47094727 4.23828125 C2.96437907 3.18165636 1.47977174 2.09383704 0 1 C0 0.67 0 0.34 0 0 Z " fill="#D6B55F" transform="translate(251,345)"/>
<path d="M0 0 C2.84820823 2.84820823 3.39117727 6.27812522 4.4375 10.0625 C4.87477217 11.60980817 5.31356166 13.1566884 5.75390625 14.703125 C5.96547363 15.44626953 6.17704102 16.18941406 6.39501953 16.95507812 C7.13085015 19.44229253 7.9877544 21.87564111 8.875 24.3125 C9.96713831 27.8922867 10.0692698 28.68233412 9 32 C8.67 30.02 8.34 28.04 8 26 C7.34 26 6.68 26 6 26 C6 25.34 6 24.68 6 24 C5.34 24 4.68 24 4 24 C3.67 22.68 3.34 21.36 3 20 C2.34 20 1.68 20 1 20 C1.20625 18.845 1.4125 17.69 1.625 16.5 C2.22400333 11.87208388 1.26446602 8.46282125 0 4 C0 2.68 0 1.36 0 0 Z " fill="#DEB451" transform="translate(257,96)"/>
<path d="M0 0 C0.95800665 3.40619579 0.89064129 5.58564951 0.125 9.0625 C-0.05804688 9.91972656 -0.24109375 10.77695312 -0.4296875 11.66015625 C-1 14 -1 14 -2 17 C-2.66 17 -3.32 17 -4 17 C-4.12117187 17.6290625 -4.24234375 18.258125 -4.3671875 18.90625 C-5.42678016 24.31832326 -6.61599898 29.66171034 -8 35 C-8.99 35 -9.98 35 -11 35 C-9.29334577 27.49822315 -6.83620335 20.28362365 -4.375 13 C-3.95023995 11.73577142 -3.52575854 10.47144919 -3.1015625 9.20703125 C-2.07043755 6.13709105 -1.03651145 3.06812485 0 0 Z " fill="#ECC55D" transform="translate(150,349)"/>
<path d="M0 0 C2.32421875 0.07421875 2.32421875 0.07421875 5 1 C6.58203125 4.01953125 6.58203125 4.01953125 7.8125 7.8125 C8.23144531 9.05644531 8.65039062 10.30039063 9.08203125 11.58203125 C10 15 10 15 10 19 C9.34 19 8.68 19 8 19 C8 18.34 8 17.68 8 17 C7.34 17 6.68 17 6 17 C5.67 13.7 5.34 10.4 5 7 C3.35 7 1.7 7 0 7 C0 4.69 0 2.38 0 0 Z " fill="#DEB547" transform="translate(245,71)"/>
<path d="M0 0 C0.66 0 1.32 0 2 0 C2.67260351 1.76858691 3.33788395 3.53996016 4 5.3125 C4.37125 6.29863281 4.7425 7.28476562 5.125 8.30078125 C6 11 6 11 6 14 C6.66 14 7.32 14 8 14 C11.44419134 26.48519362 11.44419134 26.48519362 11 33 C9.16942647 29.62362031 8.00499698 26.17342024 6.8359375 22.51953125 C6.43632812 21.27365234 6.03671875 20.02777344 5.625 18.74414062 C5.31755859 17.7769812 5.31755859 17.7769812 5.00390625 16.7902832 C4.37343319 14.80757268 3.73790055 12.82653818 3.1015625 10.84570312 C0 1.1432503 0 1.1432503 0 0 Z " fill="#FEF9E1" transform="translate(332,325)"/>
<path d="M0 0 C0.66 0.33 1.32 0.66 2 1 C-0.33333333 3.33333333 -2.66666667 5.66666667 -5 8 C-6.32 8 -7.64 8 -9 8 C-9.433125 8.928125 -9.433125 8.928125 -9.875 9.875 C-11.87585592 13.65439451 -14.12718285 14.55895176 -18 16 C-18.928125 16.37125 -19.85625 16.7425 -20.8125 17.125 C-21.534375 17.41375 -22.25625 17.7025 -23 18 C-21.77622844 14.1927107 -19.62760014 13.07373692 -16.20703125 11.2734375 C-12.41392354 9.08484792 -8.96914395 6.40732723 -5.453125 3.8046875 C-3.66779215 2.49127384 -1.84416375 1.2294425 0 0 Z " fill="#FEF2D0" transform="translate(243,342)"/>
<path d="M0 0 C2.59157895 0.26809437 4.07553641 1.05035761 6.25 2.5 C8.8357956 6.19399371 8.33648968 9.62563417 8 14 C4.535 12.02 4.535 12.02 1 10 C1 8.68 1 7.36 1 6 C0.38655243 4.31301918 -0.27095914 2.64034193 -1 1 C-0.67 0.67 -0.34 0.34 0 0 Z " fill="#FCBF45" transform="translate(120,242)"/>
<path d="M0 0 C0.99 0 1.98 0 3 0 C0.28416355 11.55675086 0.28416355 11.55675086 -1.75 16.375 C-3.07795975 20.22608326 -3.10504649 22.13233729 -2 26 C-1.67 26.66 -1.34 27.32 -1 28 C-2.32 27.67 -3.64 27.34 -5 27 C-5.08097324 24.72975032 -5.13917704 22.45867925 -5.1875 20.1875 C-5.22230469 18.92292969 -5.25710937 17.65835937 -5.29296875 16.35546875 C-4.97301171 12.69089415 -4.64204161 12.25688465 -2 10 C-1.46540263 8.02530748 -1.46540263 8.02530748 -1.375 5.9375 C-1 2 -1 2 0 0 Z " fill="#FEF7DA" transform="translate(133,392)"/>
<path d="M0 0 C0.66 0.33 1.32 0.66 2 1 C1.62875 1.86625 1.2575 2.7325 0.875 3.625 C-0.17942309 7.69206049 0.67068014 9.08800154 2 13 C2.27580863 15.28452807 2.4843786 17.57818383 2.625 19.875 C2.69976562 21.02742188 2.77453125 22.17984375 2.8515625 23.3671875 C2.90054687 24.23601562 2.94953125 25.10484375 3 26 C0.69671745 22.54507617 -0.44840609 19.04350211 -1.6875 15.125 C-1.92533203 14.41730469 -2.16316406 13.70960938 -2.40820312 12.98046875 C-3.66758922 9.01395654 -4.5558479 5.95901202 -3 2 C-2.01 1.34 -1.02 0.68 0 0 Z " fill="#FDF7D8" transform="translate(324,283)"/>
<path d="M0 0 C0.99163875 3.11557422 0.96814619 5.15060212 0.1875 8.3125 C-0.00457031 9.09367188 -0.19664062 9.87484375 -0.39453125 10.6796875 C-0.69423828 11.82824219 -0.69423828 11.82824219 -1 13 C-1.16886719 13.68320313 -1.33773437 14.36640625 -1.51171875 15.0703125 C-2.2909636 18.0501448 -2.785181 19.785181 -5 22 C-5.6425235 24.06874034 -5.6425235 24.06874034 -6 26 C-6.66 26 -7.32 26 -8 26 C-6.90147767 19.69318943 -5.4075155 13.92437637 -3 8 C-2.43355163 6.50148657 -1.8709564 5.00151014 -1.3125 3.5 C-0.879375 2.345 -0.44625 1.19 0 0 Z " fill="#EDC55C" transform="translate(215,150)"/>
<path d="M0 0 C4.24994263 -0.05805933 8.49978324 -0.09361654 12.75 -0.125 C13.9565625 -0.14175781 15.163125 -0.15851563 16.40625 -0.17578125 C17.56640625 -0.18222656 18.7265625 -0.18867188 19.921875 -0.1953125 C20.99018555 -0.20578613 22.05849609 -0.21625977 23.15917969 -0.22705078 C26.03168755 0.00253261 27.66447969 0.32682184 30 2 C30.9375 5.4375 30.9375 5.4375 31 9 C29.5625 10.9375 29.5625 10.9375 28 12 C27.34 11.67 26.68 11.34 26 11 C26.33 10.67 26.66 10.34 27 10 C27.04092937 7.66702567 27.04241723 5.33294775 27 3 C23.95236066 1.98412022 21.65281033 1.80195594 18.45703125 1.68359375 C17.38388672 1.64169922 16.31074219 1.59980469 15.20507812 1.55664062 C14.08552734 1.51732422 12.96597656 1.47800781 11.8125 1.4375 C10.68134766 1.39431641 9.55019531 1.35113281 8.38476562 1.30664062 C5.58996646 1.20050901 2.79507838 1.09845615 0 1 C0 0.67 0 0.34 0 0 Z " fill="#FEF8D9" transform="translate(400,198)"/>
<path d="M0 0 C3.17288183 4.75932275 5.12690599 9.67339017 4.8125 15.4375 C4 18 4 18 2 20 C-0.875 20.375 -0.875 20.375 -4 20 C-6.375 18 -6.375 18 -8 16 C-6.68 16 -5.36 16 -4 16 C-4 16.66 -4 17.32 -4 18 C-2.02 18 -0.04 18 2 18 C2.23170622 13.25002251 1.32104911 9.54110632 0 5 C-0.125 2.0625 -0.125 2.0625 0 0 Z " fill="#D7BB64" transform="translate(356,400)"/>
<path d="M0 0 C-1.99011606 2.07446535 -4.00877572 3.82271313 -6.35546875 5.48046875 C-6.97744141 5.92197266 -7.59941406 6.36347656 -8.24023438 6.81835938 C-9.20413086 7.49608398 -9.20413086 7.49608398 -10.1875 8.1875 C-10.84169922 8.65091797 -11.49589844 9.11433594 -12.16992188 9.59179688 C-13.77812121 10.73044896 -15.38881689 11.86557385 -17 13 C-17.33 12.01 -17.66 11.02 -18 10 C-16.7934375 9.319375 -16.7934375 9.319375 -15.5625 8.625 C-12.91143428 7.25274335 -12.91143428 7.25274335 -12 5 C-11.01 5 -10.02 5 -9 5 C-8.71125 4.360625 -8.4225 3.72125 -8.125 3.0625 C-6.14499356 -0.56751181 -3.81564568 -0.10041173 0 0 Z " fill="#D6B556" transform="translate(370,250)"/>
<path d="M0 0 C1.55272539 3.9757682 0.39595196 6.90376212 -0.8125 10.875 C-1.16957031 12.06867188 -1.52664062 13.26234375 -1.89453125 14.4921875 C-2.89705505 17.67334076 -3.9322426 20.84021114 -5 24 C-5.66 24 -6.32 24 -7 24 C-7 25.65 -7 27.3 -7 29 C-7.66 29.33 -8.32 29.66 -9 30 C-7.40567632 21.73850458 -4.72635054 13.94311743 -2 6 C-1.33130047 4.00067877 -0.66389978 2.00092017 0 0 Z " fill="#ECC964" transform="translate(160,318)"/>
<path d="M0 0 C0.66 0.33 1.32 0.66 2 1 C1.04487171 4.06350885 0.08532785 7.12561747 -0.875 10.1875 C-1.14441406 11.05181641 -1.41382813 11.91613281 -1.69140625 12.80664062 C-2.9891717 16.93733311 -4.29938308 21.01263121 -6 25 C-7.26823485 21.34606463 -6.75715321 18.50929974 -6.0625 14.75 C-5.86785156 13.67234375 -5.67320312 12.5946875 -5.47265625 11.484375 C-5.31667969 10.66453125 -5.16070312 9.8446875 -5 9 C-4.01 9 -3.02 9 -2 9 C-1.7834375 7.88625 -1.7834375 7.88625 -1.5625 6.75 C-1.09812508 4.47972261 -0.58136431 2.24240521 0 0 Z " fill="#FEF7D5" transform="translate(225,113)"/>
<path d="M0 0 C2 3 2 3 2 5 C2.66 5 3.32 5 4 5 C5.2982126 10.76081841 6.25706972 16.08739655 6 22 C3.98947871 18.30932478 2.65563827 14.40568914 1.3125 10.4375 C1.07466797 9.76525391 0.83683594 9.09300781 0.59179688 8.40039062 C-1.11753387 3.3526016 -1.11753387 3.3526016 0 0 Z " fill="#FCF4CF" transform="translate(264,112)"/>
<path d="M0 0 C0.66 0 1.32 0 2 0 C2 1.32 2 2.64 2 4 C2.99 4 3.98 4 5 4 C5.50780894 6.20655075 6.00591365 8.41533605 6.5 10.625 C6.91765625 12.46964844 6.91765625 12.46964844 7.34375 14.3515625 C7.94091621 17.67152228 8.12409534 20.63908451 8 24 C4.04167026 16.57813174 1.88318756 8.16047943 0 0 Z " fill="#FBF2D4" transform="translate(255,88)"/>
<path d="M0 0 C6.625 0.75 6.625 0.75 10 3 C10 3.66 10 4.32 10 5 C11.32 4.67 12.64 4.34 14 4 C14 4.66 14 5.32 14 6 C15.32 6 16.64 6 18 6 C18 6.66 18 7.32 18 8 C16.02 8 14.04 8 12 8 C12 7.34 12 6.68 12 6 C10.948125 5.938125 9.89625 5.87625 8.8125 5.8125 C4.3708265 4.86591384 2.88406243 3.40843742 0 0 Z " fill="#DBB64C" transform="translate(340,410)"/>
<path d="M0 0 C11.70615034 7.11389522 11.70615034 7.11389522 16 12 C12.6936092 11.44893487 9.80017874 10.90012129 7 9 C6.25 6.875 6.25 6.875 6 5 C3.03 4.505 3.03 4.505 0 4 C0 2.68 0 1.36 0 0 Z " fill="#FDF5D3" transform="translate(324,399)"/>
<path d="M0 0 C2.89065428 4.09882248 2.24771972 9.94539755 2.26171875 14.7890625 C1.17047655 12.70664834 0.22421153 10.68329568 -0.5625 8.46484375 C-1.4480773 6.0405258 -2.30547098 3.94045542 -3.73828125 1.7890625 C-7.36004709 0.56638542 -7.36004709 0.56638542 -10.73828125 0.7890625 C-7.18609727 -2.76312148 -4.28886739 -3.00328749 0 0 Z " fill="#FDF7D8" transform="translate(251.73828125,69.2109375)"/>
<path d="M0 0 C-2.2475089 1.62854254 -4.49784162 3.25290974 -6.75 4.875 C-7.70132813 5.56529297 -7.70132813 5.56529297 -8.671875 6.26953125 C-11.68695557 8.43662041 -14.58297113 10.49857822 -18 12 C-17.67 11.01 -17.34 10.02 -17 9 C-16.34 9 -15.68 9 -15 9 C-15 8.34 -15 7.68 -15 7 C-14.34 6.34 -13.68 5.68 -13 5 C-11.68 5 -10.36 5 -9 5 C-9 4.01 -9 3.02 -9 2 C-8.34 2 -7.68 2 -7 2 C-7 1.34 -7 0.68 -7 0 C-3.98968256 -0.93423645 -3.13349732 -1.04449911 0 0 Z " fill="#E9C658" transform="translate(195,378)"/>
<path d="M0 0 C0.66 0.33 1.32 0.66 2 1 C2.43702768 5.45768233 2.51445113 7.34650802 -0.3125 10.9375 C-3 13 -3 13 -6 13 C-6 13.66 -6 14.32 -6 15 C-7.32 15.33 -8.64 15.66 -10 16 C-10 15.34 -10 14.68 -10 14 C-9.34 14 -8.68 14 -8 14 C-8 13.34 -8 12.68 -8 12 C-2.58823529 8 -2.58823529 8 0 8 C0 5.36 0 2.72 0 0 Z " fill="#D9B458" transform="translate(426,200)"/>
<path d="M0 0 C3.91420857 1.13077136 6.20945732 2.08812937 9 5 C10.66072849 5.68132451 12.327767 6.34742127 14 7 C15.36365283 7.95824253 16.70794169 8.94721175 18 10 C17.67 10.99 17.34 11.98 17 13 C16.27554687 12.46890625 15.55109375 11.9378125 14.8046875 11.390625 C8.64010559 6.85948595 8.64010559 6.85948595 2.3125 2.5625 C1.549375 2.046875 0.78625 1.53125 0 1 C0 0.67 0 0.34 0 0 Z " fill="#D6B65D" transform="translate(318,394)"/>
<path d="M0 0 C-2.20335076 2.30004954 -4.52367168 4.26558323 -7.0625 6.1875 C-7.75472656 6.71730469 -8.44695312 7.24710937 -9.16015625 7.79296875 C-11 9 -11 9 -13 9 C-12.34 7.35 -11.68 5.7 -11 4 C-10.34 4 -9.68 4 -9 4 C-8.67 3.01 -8.34 2.02 -8 1 C-4.68510482 -0.74468167 -3.63361056 -1.21120352 0 0 Z " fill="#EFC34A" transform="translate(221,358)"/>
<path d="M0 0 C-2.43404713 1.8173021 -4.87196449 3.6289489 -7.3125 5.4375 C-8.34793945 6.2119043 -8.34793945 6.2119043 -9.40429688 7.00195312 C-10.40493164 7.74155273 -10.40493164 7.74155273 -11.42578125 8.49609375 C-12.03848877 8.95169678 -12.65119629 9.4072998 -13.2824707 9.87670898 C-15 11 -15 11 -18 12 C-18.33 11.01 -18.66 10.02 -19 9 C-16.69 8.34 -14.38 7.68 -12 7 C-12 6.34 -12 5.68 -12 5 C-10.34467377 3.98133771 -8.67739862 2.98189187 -7 2 C-6.67 1.34 -6.34 0.68 -6 0 C-3 -1 -3 -1 0 0 Z " fill="#D5B45E" transform="translate(352,264)"/>
<path d="M0 0 C0.66 0 1.32 0 2 0 C-2.4921875 18.23828125 -2.4921875 18.23828125 -5 22 C-4.67 18.37 -4.34 14.74 -4 11 C-3.34 11 -2.68 11 -2 11 C-2 9.68 -2 8.36 -2 7 C-2.66 7 -3.32 7 -4 7 C-3.67 6.01 -3.34 5.02 -3 4 C-2.01 4 -1.02 4 0 4 C0 2.68 0 1.36 0 0 Z " fill="#FEF4D5" transform="translate(207,168)"/>
<path d="M0 0 C0.66 0 1.32 0 2 0 C2 5.61 2 11.22 2 17 C-0.49936244 14.50063756 -1.03723753 12.35191992 -2.125 9 C-2.47820312 7.9275 -2.83140625 6.855 -3.1953125 5.75 C-4 3 -4 3 -4 1 C-3.34 1 -2.68 1 -2 1 C-1.67 2.32 -1.34 3.64 -1 5 C-0.67 3.35 -0.34 1.7 0 0 Z " fill="#FCF6E1" transform="translate(350,367)"/>
<path d="M0 0 C0.8971875 0.309375 0.8971875 0.309375 1.8125 0.625 C0.23290347 1.92123379 -1.35133413 3.21181327 -2.9375 4.5 C-3.81921875 5.21929687 -4.7009375 5.93859375 -5.609375 6.6796875 C-7.76926924 8.30942588 -9.727266 9.53284005 -12.1875 10.625 C-12.1875 9.305 -12.1875 7.985 -12.1875 6.625 C-11.011875 6.50125 -11.011875 6.50125 -9.8125 6.375 C-7.05693709 5.91590262 -7.05693709 5.91590262 -6.0625 3.6875 C-5.77375 3.006875 -5.485 2.32625 -5.1875 1.625 C-2.1875 -0.375 -2.1875 -0.375 0 0 Z " fill="#D8B559" transform="translate(414.1875,216.375)"/>
<path d="M0 0 C2.33722838 3.50584257 3.41233172 7.07550049 4.625 11.0625 C4.85445313 11.79533203 5.08390625 12.52816406 5.3203125 13.28320312 C7 18.72719029 7 18.72719029 7 21 C6.34 21 5.68 21 5 21 C2.12782571 13.97319219 0.32978484 7.60154046 0 0 Z " fill="#D9B962" transform="translate(344,363)"/>
<path d="M0 0 C1.77662117 1.07381517 3.54609689 2.159458 5.3125 3.25 C6.29863281 3.85328125 7.28476562 4.4565625 8.30078125 5.078125 C10.82922888 6.87840898 12.326533 8.41840585 14 11 C6.18363463 9.08277831 6.18363463 9.08277831 4 6 C4 5.34 4 4.68 4 4 C2.68 3.67 1.36 3.34 0 3 C0 2.01 0 1.02 0 0 Z " fill="#FEF5D6" transform="translate(276,364)"/>
<path d="M0 0 C0 2 0 2 -1.9375 4.4375 C-5.71524083 7.59846681 -9.30238983 8.74116329 -14 10 C-4.57142857 0 -4.57142857 0 0 0 Z " fill="#FDF4D7" transform="translate(376,247)"/>
<path d="M0 0 C1 2 1 2 0.00390625 5.2578125 C-0.46889984 6.5497052 -0.94971969 7.83868638 -1.4375 9.125 C-1.68048828 9.78371094 -1.92347656 10.44242187 -2.17382812 11.12109375 C-2.77578321 12.74991338 -3.38702412 14.37529575 -4 16 C-4.33 16 -4.66 16 -5 16 C-5.45376195 9.53389228 -4.62353082 6.38039425 -1 1 C-0.67 0.67 -0.34 0.34 0 0 Z " fill="#FEF8D9" transform="translate(143,368)"/>
<path d="M0 0 C3.83663072 1.34929464 6.65172569 3.07751025 9.8125 5.625 C10.99779297 6.57246094 10.99779297 6.57246094 12.20703125 7.5390625 C12.79871094 8.02117187 13.39039063 8.50328125 14 9 C13.01 9.33 12.02 9.66 11 10 C10.608125 9.525625 10.21625 9.05125 9.8125 8.5625 C7.59191626 6.64820367 5.86624291 6.38733012 3 6 C3 5.01 3 4.02 3 3 C2.01 2.67 1.02 2.34 0 2 C0 1.34 0 0.68 0 0 Z " fill="#FCF7D4" transform="translate(256,350)"/>
<path d="M0 0 C0.66 0.33 1.32 0.66 2 1 C0.625 3 0.625 3 -1 5 C-1.66 5 -2.32 5 -3 5 C-3 5.66 -3 6.32 -3 7 C-7.455 8.485 -7.455 8.485 -12 10 C-8.29909479 6.0747975 -4.45040344 3.05419844 0 0 Z " fill="#FDF3D1" transform="translate(360,257)"/>
<path d="M0 0 C1.125 3.75 1.125 3.75 0 6 C-0.22622081 7.70363822 -0.40888473 9.41328701 -0.5625 11.125 C-0.64628906 12.03507813 -0.73007813 12.94515625 -0.81640625 13.8828125 C-0.87699219 14.58148438 -0.93757812 15.28015625 -1 16 C-2.32 16 -3.64 16 -5 16 C-3.71291613 10.45563871 -2.08135307 5.29798964 0 0 Z " fill="#EEC55D" transform="translate(222,128)"/>
<path d="M0 0 C0.66 0.99 1.32 1.98 2 3 C-0.5 4.5 -0.5 4.5 -3 6 C-3.804375 6.556875 -4.60875 7.11375 -5.4375 7.6875 C-8.48871248 9.25031615 -10.61749848 9.23598848 -14 9 C-14 8.67 -14 8.34 -14 8 C-12.35 8 -10.7 8 -9 8 C-9 7.34 -9 6.68 -9 6 C-7.04109119 4.60699818 -5.0360882 3.27754554 -3 2 C-2.01 1.34 -1.02 0.68 0 0 Z " fill="#FDF4D1" transform="translate(147,412)"/>
<path d="M0 0 C-0.1875 1.8125 -0.1875 1.8125 -1 4 C-3.5 5.625 -3.5 5.625 -6 7 C-6.33 7.66 -6.66 8.32 -7 9 C-8.65 9 -10.3 9 -12 9 C-3.25 0 -3.25 0 0 0 Z " fill="#FCF5D2" transform="translate(348,267)"/>
<path d="M0 0 C3.79303725 1.00193437 6.71536341 1.81024227 10 4 C10 4.66 10 5.32 10 6 C11.32 6.33 12.64 6.66 14 7 C13.67 7.99 13.34 8.98 13 10 C10.8304939 8.52485505 8.66436293 7.0451561 6.5 5.5625 C5.87996094 5.14162109 5.25992188 4.72074219 4.62109375 4.28710938 C3.06289602 3.21691863 1.52921949 2.11120482 0 1 C0 0.67 0 0.34 0 0 Z " fill="#EDC95B" transform="translate(128,256)"/>
<path d="M0 0 C2.31 0 4.62 0 7 0 C7.268125 0.78375 7.53625 1.5675 7.8125 2.375 C8.84814432 5.28114923 8.84814432 5.28114923 12 7 C11.67 7.66 11.34 8.32 11 9 C9.72689688 8.06558465 8.456612 7.12732889 7.1875 6.1875 C6.47980469 5.66542969 5.77210937 5.14335937 5.04296875 4.60546875 C3.21468607 3.16871123 1.60103312 1.68184237 0 0 Z " fill="#F2C34F" transform="translate(64,209)"/>
<path d="M0 0 C0.78375 0.04125 1.5675 0.0825 2.375 0.125 C-1.34250779 4.32740011 -5.94160979 7.12282679 -10.625 10.125 C-10.295 8.805 -9.965 7.485 -9.625 6.125 C-8.635 6.125 -7.645 6.125 -6.625 6.125 C-6.33625 5.50625 -6.0475 4.8875 -5.75 4.25 C-4.16515329 1.25640067 -3.47581022 0.16551477 0 0 Z " fill="#EBC45E" transform="translate(174.625,389.875)"/>
<path d="M0 0 C0.99 0 1.98 0 3 0 C3.33 0.66 3.66 1.32 4 2 C6.01669827 3.13350534 6.01669827 3.13350534 8 4 C3.25 7 3.25 7 1 7 C0.34 5.02 -0.32 3.04 -1 1 C-0.67 0.67 -0.34 0.34 0 0 Z " fill="#E1B14A" transform="translate(368,243)"/>
<path d="M0 0 C2.31 0 4.62 0 7 0 C6.01 0.33 5.02 0.66 4 1 C4 1.99 4 2.98 4 4 C3.360625 4.268125 2.72125 4.53625 2.0625 4.8125 C-0.33131686 5.88667752 -0.33131686 5.88667752 -1 9 C-1.66 9 -2.32 9 -3 9 C-2.01 6.03 -1.02 3.06 0 0 Z " fill="#EAC965" transform="translate(241,70)"/>
<path d="M0 0 C0.66 0 1.32 0 2 0 C5.17692157 5.24882694 5.65697965 10.01488629 6 16 C4.08614468 13.12921701 3.03567048 10.66588344 1.875 7.4375 C1.52179688 6.46683594 1.16859375 5.49617187 0.8046875 4.49609375 C0 2 0 2 0 0 Z " fill="#FCF1D3" transform="translate(273,144)"/>
<path d="M0 0 C0.66 0 1.32 0 2 0 C1.27275406 5.52706913 -0.33445973 10.69960141 -2 16 C-2.33 16 -2.66 16 -3 16 C-3.05395478 14.37536158 -3.09277195 12.75021459 -3.125 11.125 C-3.14820313 10.22007812 -3.17140625 9.31515625 -3.1953125 8.3828125 C-3 6 -3 6 -1 4 C-0.3574765 1.93125966 -0.3574765 1.93125966 0 0 Z " fill="#FEF5CF" transform="translate(147,352)"/>
<path d="M0 0 C1.98 0 3.96 0 6 0 C2.88983545 3.28788824 -0.01618925 5.83735988 -4 8 C-2.66666667 5.33333333 -1.33333333 2.66666667 0 0 Z " fill="#EEC351" transform="translate(228,348)"/>
<path d="M0 0 C2.31 0.33 4.62 0.66 7 1 C7.33 2.98 7.66 4.96 8 7 C1.125 3.375 1.125 3.375 0 0 Z " fill="#F1C457" transform="translate(120,249)"/>
<path d="M0 0 C1.32 0 2.64 0 4 0 C4 0.66 4 1.32 4 2 C5.32 2 6.64 2 8 2 C8 3.32 8 4.64 8 6 C6.35 5.67 4.7 5.34 3 5 C3 4.34 3 3.68 3 3 C2.01 2.67 1.02 2.34 0 2 C0 1.34 0 0.68 0 0 Z " fill="#DDB52C" transform="translate(368,240)"/>
<path d="M0 0 C0.33 0 0.66 0 1 0 C1.33 2.31 1.66 4.62 2 7 C1.01 7.33 0.02 7.66 -1 8 C-1.12375 8.94875 -1.2475 9.8975 -1.375 10.875 C-2 14 -2 14 -4 16 C-3.27275406 10.47293087 -1.66554027 5.30039859 0 0 Z " fill="#EDC65D" transform="translate(232,96)"/>
<path d="M0 0 C0.66 0 1.32 0 2 0 C1.54636829 1.58468677 1.08688548 3.16769924 0.625 4.75 C0.36976563 5.63171875 0.11453125 6.5134375 -0.1484375 7.421875 C-0.9209934 9.76080572 -1.83625676 11.83442562 -3 14 C-3.02698189 12.37509046 -3.04638757 10.75005367 -3.0625 9.125 C-3.07410156 8.22007813 -3.08570313 7.31515625 -3.09765625 6.3828125 C-3 4 -3 4 -2 2 C-1.34 2 -0.68 2 0 2 C0 1.34 0 0.68 0 0 Z " fill="#FEF7D8" transform="translate(239,70)"/>
<path d="M0 0 C5.44769874 0.35146444 5.44769874 0.35146444 8 1 C9.375 3 9.375 3 10 5 C10.66 5.33 11.32 5.66 12 6 C11.01 6 10.02 6 9 6 C9 5.34 9 4.68 9 4 C7.88625 3.896875 6.7725 3.79375 5.625 3.6875 C3.830625 3.3471875 3.830625 3.3471875 2 3 C1.34 2.01 0.68 1.02 0 0 Z " fill="#D9B951" transform="translate(251,345)"/>
<path d="M0 0 C0.66 0 1.32 0 2 0 C4.63463787 5.84560277 6.56131481 10.54487966 6 17 C4.10500215 13.55144536 3.00359885 10.01199615 1.875 6.25 C1.52179688 5.07953125 1.16859375 3.9090625 0.8046875 2.703125 C0.53914063 1.81109375 0.27359375 0.9190625 0 0 Z " fill="#FDF4D1" transform="translate(337,341)"/>
<path d="M0 0 C2.56529454 1.28264727 2.66499863 2.22772349 3.625 4.875 C3.88539063 5.57367188 4.14578125 6.27234375 4.4140625 6.9921875 C5 9 5 9 5 12 C4.34 12 3.68 12 3 12 C2.67 10.35 2.34 8.7 2 7 C1.34 7 0.68 7 0 7 C0 4.69 0 2.38 0 0 Z " fill="#D4B455" transform="translate(278,164)"/>
<path d="M0 0 C0.33 0 0.66 0 1 0 C1.33266291 6.20970773 0.45029331 10.28264895 -2 16 C-2.66 16 -3.32 16 -4 16 C-2.84941444 10.60204011 -1.57578241 5.29012667 0 0 Z " fill="#ECC464" transform="translate(237,80)"/>
<path d="M0 0 C0.33 0 0.66 0 1 0 C1.28875 1.216875 1.5775 2.43375 1.875 3.6875 C2.49170764 6.18076089 3.16753989 8.41884973 4.125 10.8125 C5 13 5 13 5 16 C4.34 16 3.68 16 3 16 C0.54970669 10.28264895 -0.33266291 6.20970773 0 0 Z " fill="#DDB65A" transform="translate(351,384)"/>
<path d="M0 0 C2 4 2 4 1.625 6.25 C1.41875 6.8275 1.2125 7.405 1 8 C0.34 7.67 -0.32 7.34 -1 7 C-1.12375 8.299375 -1.2475 9.59875 -1.375 10.9375 C-1.5859375 13.15234375 -1.5859375 13.15234375 -2 15 C-2.99 15.495 -2.99 15.495 -4 16 C-2.68 10.72 -1.36 5.44 0 0 Z " fill="#EFCB66" transform="translate(138,384)"/>
<path d="M0 0 C3.63 0 7.26 0 11 0 C8.38485683 2.12038635 5.80362384 4.13091744 3 6 C3 4.68 3 3.36 3 2 C2.01 2 1.02 2 0 2 C0 1.34 0 0.68 0 0 Z " fill="#DEB24D" transform="translate(373,240)"/>
<path d="M0 0 C0.99 0 1.98 0 3 0 C2.55037804 1.96035175 2.09001752 3.91824309 1.625 5.875 C1.36976563 6.96554687 1.11453125 8.05609375 0.8515625 9.1796875 C0 12 0 12 -2 14 C-2.04254356 12.00045254 -2.04080783 9.99958364 -2 8 C-1.67 7.67 -1.34 7.34 -1 7 C-0.63239269 4.67182036 -0.29758419 2.3381615 0 0 Z " fill="#FEF5C5" transform="translate(162,304)"/>
<path d="M0 0 C1.72274487 2.58411731 2.68895522 4.54902656 3.6875 7.4375 C3.95949219 8.19933594 4.23148437 8.96117188 4.51171875 9.74609375 C5.04729142 12.21829721 4.80445309 13.62983284 4 16 C3.67 14.02 3.34 12.04 3 10 C2.34 10 1.68 10 1 10 C0.67 6.7 0.34 3.4 0 0 Z " fill="#D7B55E" transform="translate(262,112)"/>
<path d="M0 0 C0.66 0.33 1.32 0.66 2 1 C2.8125 4.375 2.8125 4.375 3 8 C1.5625 9.9375 1.5625 9.9375 0 11 C-0.66 10.67 -1.32 10.34 -2 10 C-1.67 9.67 -1.34 9.34 -1 9 C-0.76807135 7.48530552 -0.58784762 5.96245438 -0.4375 4.4375 C-0.35371094 3.61121094 -0.26992188 2.78492188 -0.18359375 1.93359375 C-0.12300781 1.29550781 -0.06242187 0.65742188 0 0 Z " fill="#F9EECC" transform="translate(428,199)"/>
<path d="M0 0 C-4.75 4 -4.75 4 -7 4 C-7.33 5.98 -7.66 7.96 -8 10 C-8.33 10 -8.66 10 -9 10 C-8.73946801 4.70251618 -8.73946801 4.70251618 -8 2 C-4.87852371 -0.71075572 -3.98376104 -1.32792035 0 0 Z " fill="#D6B75A" transform="translate(328,281)"/>
<path d="M0 0 C0.66 0.33 1.32 0.66 2 1 C1.67 1.66 1.34 2.32 1 3 C0.01 3 -0.98 3 -2 3 C-2.66 4.32 -3.32 5.64 -4 7 C-5.32 6.67 -6.64 6.34 -8 6 C-5.36 4.02 -2.72 2.04 0 0 Z " fill="#FCF1D2" transform="translate(334,276)"/>
<path d="M0 0 C3.3125 0.1875 3.3125 0.1875 7 1 C9 3.4375 9 3.4375 10 6 C9.67 6.66 9.34 7.32 9 8 C7.49712782 6.85793642 5.99776716 5.71125043 4.5 4.5625 C3.6646875 3.92441406 2.829375 3.28632813 1.96875 2.62890625 C1.3190625 2.09136719 0.669375 1.55382812 0 1 C0 0.67 0 0.34 0 0 Z " fill="#F1C76B" transform="translate(106,240)"/>
<path d="M0 0 C0.66 0.33 1.32 0.66 2 1 C0.625 3 0.625 3 -1 5 C-1.66 5 -2.32 5 -3 5 C-3 5.66 -3 6.32 -3 7 C-4.65 7.33 -6.3 7.66 -8 8 C-5.33333333 5.33333333 -2.66666667 2.66666667 0 0 Z " fill="#FCF3C8" transform="translate(416,216)"/>
<path d="M0 0 C0.598125 0.20625 1.19625 0.4125 1.8125 0.625 C1.1525 1.285 0.4925 1.945 -0.1875 2.625 C0.8025 2.955 1.7925 3.285 2.8125 3.625 C2.8125 4.285 2.8125 4.945 2.8125 5.625 C1.1625 5.295 -0.4875 4.965 -2.1875 4.625 C-2.1875 3.965 -2.1875 3.305 -2.1875 2.625 C-3.1775 2.295 -4.1675 1.965 -5.1875 1.625 C-2.1875 -0.375 -2.1875 -0.375 0 0 Z " fill="#FAF9E0" transform="translate(154.1875,408.375)"/>
<path d="M0 0 C1.65 0 3.3 0 5 0 C3.71034824 1.37562854 2.37310707 2.70766393 1 4 C0.34 4 -0.32 4 -1 4 C-1 4.66 -1 5.32 -1 6 C-1.99 6.33 -2.98 6.66 -4 7 C-3.67 5.68 -3.34 4.36 -3 3 C-2.01 3 -1.02 3 0 3 C0 2.01 0 1.02 0 0 Z " fill="#ECC657" transform="translate(150,406)"/>
<path d="M0 0 C0.33 0.99 0.66 1.98 1 3 C-2.96 4.98 -2.96 4.98 -7 7 C-7 6.01 -7 5.02 -7 4 C-4.69 2.68 -2.38 1.36 0 0 Z " fill="#FCEBB2" transform="translate(228,353)"/>
<path d="M0 0 C1.5027237 0.97498145 3.00211963 1.95509389 4.5 2.9375 C5.3353125 3.48277344 6.170625 4.02804687 7.03125 4.58984375 C7.6809375 5.05519531 8.330625 5.52054687 9 6 C9 6.33 9 6.66 9 7 C7.35 7 5.7 7 4 7 C4 6.01 4 5.02 4 4 C2.68 3.67 1.36 3.34 0 3 C0 2.01 0 1.02 0 0 Z " fill="#FEF8CE" transform="translate(144,268)"/>
<path d="M0 0 C2.97 0.99 5.94 1.98 9 3 C8.67 4.32 8.34 5.64 8 7 C6.66382648 6.02471263 5.3311249 5.04466681 4 4.0625 C3.2575 3.51722656 2.515 2.97195313 1.75 2.41015625 C1.1725 1.94480469 0.595 1.47945313 0 1 C0 0.67 0 0.34 0 0 Z " fill="#D9B55D" transform="translate(280,366)"/>
<path d="M0 0 C0.33 0 0.66 0 1 0 C1.33 2.64 1.66 5.28 2 8 C0.68 8.33 -0.64 8.66 -2 9 C-1.125 1.125 -1.125 1.125 0 0 Z " fill="#EBC24E" transform="translate(163,311)"/>
<path d="M0 0 C0.99 0.33 1.98 0.66 3 1 C2.88590407 2.45922693 2.75834456 3.91740598 2.625 5.375 C2.55539063 6.18710937 2.48578125 6.99921875 2.4140625 7.8359375 C2 10 2 10 0 12 C0 8 0 4 0 0 Z " fill="#EEC661" transform="translate(169,284)"/>
<path d="M0 0 C0.66 0.33 1.32 0.66 2 1 C1.67 1.99 1.34 2.98 1 4 C-1.31 4.33 -3.62 4.66 -6 5 C-2.25 1.125 -2.25 1.125 0 0 Z " fill="#FDF2CF" transform="translate(406,224)"/>
<path d="M0 0 C0.66 0.33 1.32 0.66 2 1 C1.375 2.9375 1.375 2.9375 0 5 C-3.125 5.75 -3.125 5.75 -6 6 C-4 4 -2 2 0 0 Z " fill="#FDF2CA" transform="translate(182,386)"/>
<path d="M0 0 C3.37503669 1.1858237 5.64722731 2.27573689 8 5 C5.69 4.67 3.38 4.34 1 4 C0.67 2.68 0.34 1.36 0 0 Z " fill="#FFF5D4" transform="translate(104,240)"/>
<path d="M0 0 C0.99 0.33 1.98 0.66 3 1 C0.31158141 3.25245881 -1.64641875 4.88213958 -5 6 C-5 5.01 -5 4.02 -5 3 C-3.35 2.67 -1.7 2.34 0 2 C0 1.34 0 0.68 0 0 Z " fill="#E7C95D" transform="translate(160,400)"/>
<path d="M0 0 C0.99 0.33 1.98 0.66 3 1 C3 2.65 3 4.3 3 6 C2.01 6 1.02 6 0 6 C-0.38218767 4.34385343 -0.71395102 2.67542976 -1 1 C-0.67 0.67 -0.34 0.34 0 0 Z " fill="#ECAC3B" transform="translate(253,338)"/>
<path d="M0 0 C0 1.65 0 3.3 0 5 C-1.32 5 -2.64 5 -4 5 C-4 3.68 -4 2.36 -4 1 C-1 0 -1 0 0 0 Z " fill="#F7C430" transform="translate(241,339)"/>
<path d="M0 0 C2.29633824 3.44450737 2.54016485 5.93812283 3 10 C0.51280729 7.08025204 -0.58572305 4.83206182 -1 1 C-0.67 0.67 -0.34 0.34 0 0 Z " fill="#D8B762" transform="translate(287,189)"/>
<path d="M0 0 C0.33 0 0.66 0 1 0 C1 2.64 1 5.28 1 8 C-0.65 8 -2.3 8 -4 8 C-4 6.68 -4 5.36 -4 4 C-2.68 4.99 -1.36 5.98 0 7 C0 4.69 0 2.38 0 0 Z " fill="#FDFBE9" transform="translate(201,184)"/>
<path d="M0 0 C0.33 0 0.66 0 1 0 C1.29296875 6.0546875 1.29296875 6.0546875 1 8 C0.01 8.66 -0.98 9.32 -2 10 C-1.34 6.7 -0.68 3.4 0 0 Z " fill="#F6C12E" transform="translate(213,166)"/>
<path d="M0 0 C1.88391785 3.26545761 2.49287967 6.28111761 3 10 C2.34 10 1.68 10 1 10 C-0.60725635 6.78548731 -0.05748185 3.56387464 0 0 Z " fill="#D5B85B" transform="translate(252,80)"/>
<path d="M0 0 C5.75 2.625 5.75 2.625 8 6 C5.21788056 5.62403791 3.4120716 5.32681541 1.1875 3.5625 C0 2 0 2 0 0 Z " fill="#FCF2C4" transform="translate(262,354)"/>
<path d="M0 0 C2.64 0 5.28 0 8 0 C6.71034824 1.37562854 5.37310707 2.70766393 4 4 C3.34 4 2.68 4 2 4 C2 3.01 2 2.02 2 1 C1.34 0.67 0.68 0.34 0 0 Z " fill="#EDC54B" transform="translate(232,344)"/>
<path d="M0 0 C1.32 0 2.64 0 4 0 C4 1.32 4 2.64 4 4 C2.35 4 0.7 4 -1 4 C-0.67 2.68 -0.34 1.36 0 0 Z " fill="#FBBC4C" transform="translate(232,340)"/>
</svg>
